<?xml version="1.0" standalone="no"?>
<!DOCTYPE svg PUBLIC "-//W3C//DTD SVG 20010904//EN"
 "http://www.w3.org/TR/2001/REC-SVG-20010904/DTD/svg10.dtd">
<svg version="1.0" xmlns="http://www.w3.org/2000/svg"
 width="1566.000000pt" height="998.000000pt" viewBox="0 0 1566.000000 998.000000"
 preserveAspectRatio="xMidYMid meet">

<g transform="translate(0.000000,998.000000) scale(0.100000,-0.100000)"
fill="#000000" stroke="none">
<path d="M2793 9510 c0 -36 2 -53 4 -37 4 22 9 27 33 27 24 0 29 -5 33 -27 2
-16 4 1 4 37 0 36 -2 50 -4 33 -4 -29 -8 -33 -33 -33 -25 0 -29 4 -33 33 -2
17 -4 3 -4 -33z"/>
<path d="M2430 9550 c0 -6 33 -10 80 -10 47 0 80 4 80 10 0 6 -33 10 -80 10
-47 0 -80 -4 -80 -10z"/>
<path d="M2911 9531 c-30 -19 -11 -80 26 -81 22 0 36 40 24 66 -11 25 -27 30
-50 15z m44 -20 c7 -24 -3 -51 -21 -51 -20 0 -34 31 -23 52 13 23 36 23 44 -1z"/>
<path d="M2991 9491 l2 -46 6 40 c4 26 11 40 21 40 10 0 17 -14 21 -40 l5 -40
5 40 c3 27 9 41 21 43 13 3 18 -6 21 -40 l4 -43 -1 45 -1 45 -52 1 -53 1 1
-46z"/>
<path d="M3143 9533 c-7 -2 -13 -20 -13 -38 0 -25 5 -35 21 -40 12 -4 25 -3
30 2 6 6 1 9 -12 9 -12 -1 -24 5 -26 12 -3 7 5 12 21 12 19 0 26 5 26 19 0 15
-23 35 -33 30 -1 0 -8 -3 -14 -6z m35 -21 c2 -7 -6 -12 -17 -12 -21 0 -27 11
-14 24 9 9 26 2 31 -12z"/>
<path d="M2468 9513 c23 -2 61 -2 85 0 23 2 4 4 -43 4 -47 0 -66 -2 -42 -4z"/>
<path d="M2468 9483 c23 -2 61 -2 85 0 23 2 4 4 -43 4 -47 0 -66 -2 -42 -4z"/>
<path d="M2430 9450 c0 -6 33 -10 80 -10 47 0 80 4 80 10 0 6 -33 10 -80 10
-47 0 -80 -4 -80 -10z"/>
<path d="M6073 9345 c0 -33 2 -45 4 -27 2 18 2 45 0 60 -2 15 -4 0 -4 -33z"/>
<path d="M5422 9337 c-2 -40 19 -60 40 -39 8 8 5 9 -10 5 -18 -4 -21 0 -25 34
l-4 38 -1 -38z"/>
<path d="M5507 9363 c-3 -5 5 -8 18 -8 13 0 21 3 18 8 -2 4 -10 7 -18 7 -8 0
-16 -3 -18 -7z"/>
<path d="M5568 9363 c6 -2 18 -2 25 0 6 3 1 5 -13 5 -14 0 -19 -2 -12 -5z"/>
<path d="M5657 9363 c-3 -5 5 -8 18 -8 13 0 21 3 18 8 -2 4 -10 7 -18 7 -8 0
-16 -3 -18 -7z"/>
<path d="M5764 9359 c-3 -6 -1 -16 5 -22 9 -9 10 -7 5 7 -6 16 -4 18 14 14 12
-4 20 -2 16 3 -7 12 -31 11 -40 -2z"/>
<path d="M5833 9330 c0 -25 2 -35 4 -22 2 12 2 32 0 45 -2 12 -4 2 -4 -23z"/>
<path d="M5899 9362 c6 -2 12 -20 12 -40 l2 -37 6 34 c4 21 13 37 26 41 14 5
8 7 -19 7 -21 -1 -34 -3 -27 -5z"/>
<path d="M5993 9315 c0 -33 2 -45 4 -27 2 18 2 45 0 60 -2 15 -4 0 -4 -33z"/>
<path d="M6023 9360 c9 -6 17 -20 17 -30 0 -10 -8 -24 -17 -30 -11 -7 -12 -10
-4 -7 24 6 37 35 25 54 -6 9 -17 18 -25 20 -8 3 -7 0 4 -7z"/>
<path d="M6217 9363 c-3 -5 5 -8 18 -8 13 0 21 3 18 8 -2 4 -10 7 -18 7 -8 0
-16 -3 -18 -7z"/>
<path d="M6310 9366 c0 -2 7 -7 16 -10 8 -3 12 -2 9 4 -6 10 -25 14 -25 6z"/>
<path d="M6402 9356 c7 -8 15 -12 17 -11 5 6 -10 25 -20 25 -5 0 -4 -6 3 -14z"/>
<path d="M6483 9330 c0 -25 2 -35 4 -22 2 12 2 32 0 45 -2 12 -4 2 -4 -23z"/>
<path d="M6596 9361 c-4 -5 3 -7 14 -4 23 6 26 13 6 13 -8 0 -17 -4 -20 -9z"/>
<path d="M6658 9363 c6 -2 18 -2 25 0 6 3 1 5 -13 5 -14 0 -19 -2 -12 -5z"/>
<path d="M6713 9330 c0 -25 2 -35 4 -22 2 12 2 32 0 45 -2 12 -4 2 -4 -23z"/>
<path d="M6773 9360 c9 -6 17 -20 17 -30 0 -10 -8 -24 -17 -30 -11 -7 -12 -10
-4 -7 8 2 19 11 25 20 12 19 -1 48 -25 54 -8 3 -7 0 4 -7z"/>
<path d="M6823 9330 c0 -25 2 -35 4 -22 2 12 2 32 0 45 -2 12 -4 2 -4 -23z"/>
<path d="M6840 9366 c0 -2 7 -7 16 -10 8 -3 12 -2 9 4 -6 10 -25 14 -25 6z"/>
<path d="M5962 9320 c0 -19 2 -27 5 -17 2 9 2 25 0 35 -3 9 -5 1 -5 -18z"/>
<path d="M6100 9330 c0 -18 19 -40 35 -40 5 0 2 5 -7 11 -26 14 -22 29 7 29
14 0 25 3 25 8 0 4 -13 7 -30 7 -20 0 -30 -5 -30 -15z"/>
<path d="M6512 9330 c0 -14 2 -19 5 -12 2 6 2 18 0 25 -3 6 -5 1 -5 -13z"/>
<path d="M6613 9340 c-28 -12 -30 -20 -3 -13 25 7 26 -12 3 -26 -16 -9 -15
-10 5 -8 17 1 22 7 22 29 0 15 -1 28 -2 27 -2 0 -13 -4 -25 -9z"/>
<path d="M5654 9325 c-7 -17 3 -35 19 -34 9 0 9 2 0 6 -21 8 -15 31 10 36 l22
4 -23 2 c-12 0 -25 -6 -28 -14z"/>
<path d="M6214 9325 c-7 -17 3 -35 19 -34 9 0 9 2 0 6 -21 8 -15 31 10 36 l22
4 -23 2 c-12 0 -25 -6 -28 -14z"/>
<path d="M5536 9316 c6 -16 4 -18 -14 -14 -12 4 -20 2 -16 -3 7 -12 31 -11 40
2 3 6 1 16 -5 22 -9 9 -10 7 -5 -7z"/>
<path d="M5797 9313 c5 -13 2 -15 -17 -10 -16 4 -20 3 -12 -5 14 -14 42 -3 42
17 0 8 -4 15 -10 15 -5 0 -7 -7 -3 -17z"/>
<path d="M6402 9304 c-7 -8 -8 -14 -3 -14 10 0 25 19 20 25 -2 1 -10 -3 -17
-11z"/>
<path d="M5347 9298 c2 -5 10 -8 18 -8 8 0 16 3 18 8 3 4 -5 7 -18 7 -13 0
-21 -3 -18 -7z"/>
<path d="M6320 9300 c-9 -6 -10 -10 -3 -10 6 0 15 5 18 10 8 12 4 12 -15 0z"/>
<path d="M2796 9114 c-29 -28 -11 -104 24 -104 17 0 40 12 40 21 0 5 -9 4 -19
-3 -40 -25 -68 35 -37 78 13 16 18 17 35 6 12 -7 21 -8 21 -3 0 9 -23 21 -40
21 -5 0 -16 -7 -24 -16z"/>
<path d="M2430 9110 c0 -6 33 -10 80 -10 47 0 80 4 80 10 0 6 -33 10 -80 10
-47 0 -80 -4 -80 -10z"/>
<path d="M3059 9108 c-4 -45 9 -98 23 -98 9 0 9 3 0 12 -14 14 -16 65 -3 70 5
2 3 9 -5 16 -11 10 -14 10 -15 0z"/>
<path d="M2894 9058 c1 -40 3 -43 29 -44 26 -1 27 1 26 45 l-2 46 -6 -40 c-9
-57 -38 -61 -44 -6 l-4 41 1 -42z"/>
<path d="M2987 9093 c-15 -14 -6 -34 19 -43 29 -12 22 -34 -9 -26 -15 4 -17 2
-8 -7 8 -8 17 -8 27 -2 22 14 20 28 -5 40 -27 13 -28 39 -1 32 11 -3 18 -1 14
4 -6 11 -28 12 -37 2z"/>
<path d="M3121 9091 c-30 -19 -11 -80 26 -81 22 0 36 40 24 66 -11 25 -27 30
-50 15z m44 -20 c7 -24 -3 -51 -21 -51 -20 0 -34 31 -23 52 13 23 36 23 44 -1z"/>
<path d="M3201 9052 l2 -47 6 40 c4 27 12 41 24 43 14 3 17 -4 18 -40 l1 -43
8 40 c9 47 8 48 -30 51 -29 2 -30 1 -29 -44z"/>
<path d="M3293 9089 c11 -6 18 -24 19 -47 l1 -37 4 33 c4 34 -10 62 -31 62 -6
0 -3 -5 7 -11z"/>
<path d="M3351 9086 c-26 -31 11 -98 39 -70 8 8 4 10 -11 10 -36 -2 -34 22 3
27 l33 4 -32 1 c-35 2 -44 18 -17 29 9 3 20 0 26 -8 8 -12 9 -11 5 1 -5 21
-31 24 -46 6z"/>
<path d="M3432 9051 c1 -41 2 -42 5 -11 3 19 9 40 14 46 5 7 3 11 -6 11 -11 0
-15 -12 -13 -46z"/>
<path d="M2468 9073 c23 -2 61 -2 85 0 23 2 4 4 -43 4 -47 0 -66 -2 -42 -4z"/>
<path d="M2468 9043 c23 -2 61 -2 85 0 23 2 4 4 -43 4 -47 0 -66 -2 -42 -4z"/>
<path d="M2430 9010 c0 -6 33 -10 80 -10 47 0 80 4 80 10 0 6 -33 10 -80 10
-47 0 -80 -4 -80 -10z"/>
<path d="M5443 8885 c0 -33 2 -45 4 -27 2 18 2 45 0 60 -2 15 -4 0 -4 -33z"/>
<path d="M5470 8885 c0 -30 5 -55 10 -55 6 0 10 25 10 55 0 30 -4 55 -10 55
-5 0 -10 -25 -10 -55z"/>
<path d="M6172 8923 c-4 -10 -5 -36 -1 -58 l6 -40 2 37 c0 20 7 39 14 41 9 4
8 6 -2 6 -11 1 -11 4 -1 16 8 10 9 15 2 15 -6 0 -15 -8 -20 -17z"/>
<path d="M5356 8890 c-18 -45 -21 -75 -5 -47 12 21 49 23 49 2 0 -8 5 -15 11
-15 6 0 8 6 5 13 -2 6 -10 29 -17 50 -7 20 -15 37 -19 37 -5 0 -15 -18 -24
-40z m34 -11 c0 -5 -7 -9 -15 -9 -9 0 -12 6 -9 15 6 15 24 11 24 -6z"/>
<path d="M5798 8917 c-8 -23 7 -80 22 -85 12 -4 13 -2 3 9 -15 15 -17 56 -4
61 5 2 3 8 -4 15 -10 9 -14 9 -17 0z"/>
<path d="M5510 8895 c-26 -31 13 -82 44 -56 19 16 21 42 4 59 -16 16 -33 15
-48 -3z m40 -25 c0 -25 -18 -36 -26 -16 -8 21 3 49 16 41 5 -3 10 -15 10 -25z"/>
<path d="M5583 8894 c3 -11 9 -30 13 -44 l7 -25 13 30 12 30 7 -27 c4 -16 11
-28 15 -28 9 0 24 70 16 78 -3 3 -6 -4 -6 -16 0 -11 -4 -24 -10 -27 -5 -3 -10
2 -10 13 0 32 -13 34 -26 5 -11 -25 -12 -26 -13 -6 -1 12 -6 25 -12 29 -7 4
-9 0 -6 -12z"/>
<path d="M5697 8903 c-13 -13 -7 -32 13 -38 27 -9 26 -29 -1 -22 -16 4 -19 3
-11 -5 14 -14 42 -3 42 16 0 8 -9 18 -20 21 -11 4 -18 10 -15 15 3 5 13 6 22
3 11 -4 14 -3 9 5 -8 13 -29 16 -39 5z"/>
<path d="M5844 8896 c-3 -8 -4 -25 -2 -38 2 -17 9 -23 28 -23 22 0 25 4 25 35
0 29 -4 36 -23 38 -13 2 -24 -3 -28 -12z m41 -26 c0 -27 -22 -39 -31 -16 -8
22 3 49 19 43 6 -2 12 -14 12 -27z"/>
<path d="M5961 8851 c1 -32 4 -48 7 -36 4 11 13 20 21 20 8 0 19 8 25 18 14
22 -3 52 -33 53 -19 1 -21 -4 -20 -55z m39 19 c0 -10 -5 -22 -10 -25 -13 -8
-24 20 -16 41 8 20 26 9 26 -16z"/>
<path d="M6041 8896 c-25 -30 13 -86 40 -59 8 8 7 11 -6 10 -10 -1 -20 4 -22
11 -3 7 4 12 17 12 15 0 20 5 18 17 -4 23 -31 28 -47 9z m34 -6 c3 -5 -1 -10
-9 -10 -9 0 -16 5 -16 10 0 6 4 10 9 10 6 0 13 -4 16 -10z"/>
<path d="M6112 8866 c1 -37 2 -38 5 -8 2 17 8 32 14 32 5 0 9 4 9 8 0 5 -7 9
-15 9 -11 0 -15 -11 -13 -41z"/>
<path d="M6214 8896 c-3 -8 -4 -25 -2 -38 2 -17 9 -23 28 -23 22 0 25 4 25 35
0 29 -4 36 -23 38 -13 2 -24 -3 -28 -12z m41 -26 c0 -27 -22 -39 -31 -16 -8
22 3 49 19 43 6 -2 12 -14 12 -27z"/>
<path d="M6292 8866 c1 -37 2 -38 5 -8 2 17 8 32 14 32 5 0 9 4 9 8 0 5 -7 9
-15 9 -11 0 -15 -11 -13 -41z"/>
<path d="M6341 8866 l2 -41 6 34 c8 48 31 53 31 7 0 -20 5 -36 10 -36 6 0 10
16 10 36 0 46 22 41 32 -7 6 -34 6 -34 5 6 l-2 40 -47 1 -48 1 1 -41z"/>
<path d="M6460 8900 c0 -5 5 -10 11 -10 5 0 7 5 4 10 -3 6 -8 10 -11 10 -2 0
-4 -4 -4 -10z"/>
<path d="M6460 8840 c0 -5 5 -10 11 -10 5 0 7 5 4 10 -3 6 -8 10 -11 10 -2 0
-4 -4 -4 -10z"/>
<path d="M5490 8616 c-6 -8 -10 -25 -7 -38 4 -20 4 -20 6 5 1 19 8 31 24 37
15 6 17 9 6 9 -9 1 -22 -6 -29 -13z"/>
<path d="M5959 8619 c-2 -29 3 -74 9 -81 4 -4 6 13 5 38 -1 43 -12 74 -14 43z"/>
<path d="M5586 8601 c-3 -5 3 -7 14 -4 11 3 20 1 20 -5 0 -6 -10 -13 -22 -15
-19 -4 -18 -5 5 -6 22 -1 28 3 25 16 -4 20 -33 29 -42 14z"/>
<path d="M5648 8603 c6 -2 18 -2 25 0 6 3 1 5 -13 5 -14 0 -19 -2 -12 -5z"/>
<path d="M5853 8570 c0 -25 2 -35 4 -22 2 12 2 32 0 45 -2 12 -4 2 -4 -23z"/>
<path d="M5884 8599 c-3 -6 -1 -16 5 -22 9 -9 10 -7 5 7 -6 16 -4 18 14 14 12
-4 20 -2 16 3 -7 12 -31 11 -40 -2z"/>
<path d="M6033 8600 c9 -6 17 -20 17 -30 0 -10 -8 -24 -17 -30 -11 -7 -12 -10
-4 -7 8 2 19 11 25 20 12 19 -1 48 -25 54 -8 3 -7 0 4 -7z"/>
<path d="M6083 8570 c0 -25 2 -35 4 -22 2 12 2 32 0 45 -2 12 -4 2 -4 -23z"/>
<path d="M6110 8600 c8 -5 20 -10 25 -10 6 0 3 5 -5 10 -8 5 -19 10 -25 10 -5
0 -3 -5 5 -10z"/>
<path d="M6157 8603 c6 -4 13 -24 16 -43 4 -34 4 -33 3 4 -1 26 -6 41 -16 43
-10 3 -11 2 -3 -4z"/>
<path d="M6285 8600 c-3 -6 1 -7 9 -4 18 7 21 14 7 14 -6 0 -13 -4 -16 -10z"/>
<path d="M6324 8599 c-3 -6 -1 -16 5 -22 9 -9 10 -7 5 7 -6 16 -4 18 14 14 12
-4 20 -2 16 3 -7 12 -31 11 -40 -2z"/>
<path d="M5324 8579 c-10 -17 13 -36 27 -22 12 12 4 33 -11 33 -5 0 -12 -5
-16 -11z"/>
<path d="M5732 8570 c0 -14 2 -19 5 -12 2 6 2 18 0 25 -3 6 -5 1 -5 -13z"/>
<path d="M6200 8570 c0 -18 19 -40 35 -40 5 0 2 5 -7 11 -26 14 -22 29 7 29
14 0 25 3 25 8 0 4 -13 7 -30 7 -20 0 -30 -5 -30 -15z"/>
<path d="M5528 8573 c7 -3 16 -2 19 1 4 3 -2 6 -13 5 -11 0 -14 -3 -6 -6z"/>
<path d="M5525 8540 c-16 -7 -17 -9 -3 -9 9 -1 20 4 23 9 7 11 7 11 -20 0z"/>
<path d="M5587 8538 c2 -5 10 -8 18 -8 8 0 16 3 18 8 3 4 -5 7 -18 7 -13 0
-21 -3 -18 -7z"/>
<path d="M5660 8540 c0 -5 5 -10 11 -10 5 0 7 5 4 10 -3 6 -8 10 -11 10 -2 0
-4 -4 -4 -10z"/>
<path d="M5817 8539 c7 -7 15 -10 18 -7 3 3 -2 9 -12 12 -14 6 -15 5 -6 -5z"/>
<path d="M5887 8538 c2 -5 10 -8 18 -8 8 0 16 3 18 8 3 4 -5 7 -18 7 -13 0
-21 -3 -18 -7z"/>
<path d="M6327 8538 c2 -5 10 -8 18 -8 8 0 16 3 18 8 3 4 -5 7 -18 7 -13 0
-21 -3 -18 -7z"/>
<path d="M5492 8398 c-27 -27 -8 -89 28 -87 9 0 6 4 -7 9 -17 7 -23 18 -23 40
0 22 6 33 23 40 13 5 16 9 7 9 -9 1 -21 -4 -28 -11z"/>
<path d="M5600 8401 c31 -9 33 -33 3 -41 l-22 -5 24 -12 c14 -6 22 -7 19 -2
-3 6 0 16 6 24 16 20 -4 45 -34 44 -19 -1 -18 -2 4 -8z"/>
<path d="M5662 8374 c-2 -48 19 -74 46 -57 11 7 17 25 18 54 l2 44 -7 -45 c-5
-36 -10 -45 -26 -45 -16 0 -21 9 -26 45 l-6 45 -1 -41z"/>
<path d="M5750 8360 c0 -46 2 -50 23 -49 16 1 18 2 5 6 -13 3 -18 15 -18 43 0
28 5 40 18 43 13 4 11 5 -5 6 -21 1 -23 -3 -23 -49z"/>
<path d="M5805 8360 c0 -21 3 -36 8 -33 4 2 7 17 7 33 0 16 -3 31 -7 33 -5 3
-8 -12 -8 -33z"/>
<path d="M5887 8383 c-3 -5 5 -8 18 -8 13 0 21 3 18 8 -2 4 -10 7 -18 7 -8 0
-16 -3 -18 -7z"/>
<path d="M5952 8357 c-2 -40 19 -60 40 -39 8 8 5 9 -10 5 -18 -4 -21 0 -25 34
l-4 38 -1 -38z"/>
<path d="M6037 8383 c-3 -5 5 -8 18 -8 13 0 21 3 18 8 -2 4 -10 7 -18 7 -8 0
-16 -3 -18 -7z"/>
<path d="M6098 8383 c6 -2 18 -2 25 0 6 3 1 5 -13 5 -14 0 -19 -2 -12 -5z"/>
<path d="M6157 8383 c-3 -5 5 -8 18 -8 13 0 21 3 18 8 -2 4 -10 7 -18 7 -8 0
-16 -3 -18 -7z"/>
<path d="M6257 8383 c6 -4 13 -24 16 -43 4 -34 4 -33 3 4 -1 26 -6 41 -16 43
-10 3 -11 2 -3 -4z"/>
<path d="M6290 8386 c0 -2 7 -7 16 -10 8 -3 12 -2 9 4 -6 10 -25 14 -25 6z"/>
<path d="M6356 8381 c-3 -5 3 -7 14 -4 11 3 20 1 20 -5 0 -6 -10 -13 -22 -15
-19 -4 -18 -5 5 -6 22 -1 28 3 25 16 -4 20 -33 29 -42 14z"/>
<path d="M6423 8350 c0 -25 2 -35 4 -22 2 12 2 32 0 45 -2 12 -4 2 -4 -23z"/>
<path d="M6477 8383 c-3 -5 5 -8 18 -8 13 0 21 3 18 8 -2 4 -10 7 -18 7 -8 0
-16 -3 -18 -7z"/>
<path d="M5324 8359 c-10 -17 13 -36 27 -22 12 12 4 33 -11 33 -5 0 -12 -5
-16 -11z"/>
<path d="M6066 8336 c6 -16 4 -18 -14 -14 -12 4 -20 2 -16 -3 7 -12 31 -11 40
2 3 6 1 16 -5 22 -9 9 -10 7 -5 -7z"/>
<path d="M6506 8336 c6 -16 4 -18 -14 -14 -12 4 -20 2 -16 -3 7 -12 31 -11 40
2 3 6 1 16 -5 22 -9 9 -10 7 -5 -7z"/>
<path d="M5887 8318 c2 -5 10 -8 18 -8 8 0 16 3 18 8 3 4 -5 7 -18 7 -13 0
-21 -3 -18 -7z"/>
<path d="M6157 8318 c2 -5 10 -8 18 -8 8 0 16 3 18 8 3 4 -5 7 -18 7 -13 0
-21 -3 -18 -7z"/>
<path d="M6357 8318 c2 -5 10 -8 18 -8 8 0 16 3 18 8 3 4 -5 7 -18 7 -13 0
-21 -3 -18 -7z"/>
<path d="M6113 8135 c0 -33 2 -45 4 -27 2 18 2 45 0 60 -2 15 -4 0 -4 -33z"/>
<path d="M6223 8135 c0 -33 2 -45 4 -27 2 18 2 45 0 60 -2 15 -4 0 -4 -33z"/>
<path d="M6673 8135 c0 -33 2 -45 4 -27 2 18 2 45 0 60 -2 15 -4 0 -4 -33z"/>
<path d="M7703 8135 c0 -33 2 -45 4 -27 2 18 2 45 0 60 -2 15 -4 0 -4 -33z"/>
<path d="M5500 8176 c0 -2 9 -6 20 -9 11 -3 18 -1 14 4 -5 9 -34 13 -34 5z"/>
<path d="M5480 8151 c0 -10 19 -25 25 -20 1 2 -3 10 -11 17 -8 7 -14 8 -14 3z"/>
<path d="M5597 8153 c6 -4 13 -24 16 -43 4 -34 4 -33 3 4 -1 26 -6 41 -16 43
-10 3 -11 2 -3 -4z"/>
<path d="M5756 8143 c-6 -14 -5 -15 5 -6 7 7 10 15 7 18 -3 3 -9 -2 -12 -12z"/>
<path d="M5863 8120 c0 -25 2 -35 4 -22 2 12 2 32 0 45 -2 12 -4 2 -4 -23z"/>
<path d="M5892 8148 c9 -7 19 -26 21 -43 3 -21 4 -18 3 10 -1 31 -5 41 -21 43
-18 4 -19 3 -3 -10z"/>
<path d="M5937 8153 c6 -4 13 -24 16 -43 4 -34 4 -33 3 4 -1 26 -6 41 -16 43
-10 3 -11 2 -3 -4z"/>
<path d="M5997 8153 c-3 -5 5 -8 18 -8 13 0 21 3 18 8 -2 4 -10 7 -18 7 -8 0
-16 -3 -18 -7z"/>
<path d="M6075 8150 c-3 -6 1 -7 9 -4 18 7 21 14 7 14 -6 0 -13 -4 -16 -10z"/>
<path d="M6193 8120 c0 -25 2 -35 4 -22 2 12 2 32 0 45 -2 12 -4 2 -4 -23z"/>
<path d="M6266 8151 c-3 -5 3 -7 14 -4 11 3 20 0 20 -6 0 -6 -12 -11 -26 -11
-18 0 -25 -5 -22 -16 4 -24 35 -41 48 -28 8 8 4 10 -11 10 -12 -1 -24 5 -26
12 -3 7 5 12 22 12 20 0 26 4 23 17 -4 20 -33 29 -42 14z"/>
<path d="M6376 8151 c-4 -5 3 -7 14 -4 23 6 26 13 6 13 -8 0 -17 -4 -20 -9z"/>
<path d="M6443 8120 c0 -25 2 -35 4 -22 2 12 2 32 0 45 -2 12 -4 2 -4 -23z"/>
<path d="M6460 8156 c0 -2 7 -7 16 -10 8 -3 12 -2 9 4 -6 10 -25 14 -25 6z"/>
<path d="M6525 8150 c-3 -6 1 -7 9 -4 18 7 21 14 7 14 -6 0 -13 -4 -16 -10z"/>
<path d="M6643 8120 c0 -25 2 -35 4 -22 2 12 2 32 0 45 -2 12 -4 2 -4 -23z"/>
<path d="M6716 8151 c-3 -5 3 -7 14 -4 11 3 20 0 20 -6 0 -6 -6 -11 -14 -11
-8 0 -17 -4 -20 -9 -4 -5 3 -7 13 -4 14 4 21 -1 24 -19 3 -12 4 -5 4 17 -2 28
-7 41 -19 43 -9 2 -19 -1 -22 -7z"/>
<path d="M6781 8116 c2 -34 3 -36 6 -11 3 17 9 35 14 41 5 7 3 11 -6 11 -11 0
-15 -11 -14 -41z"/>
<path d="M6913 8120 c0 -25 2 -35 4 -22 2 12 2 32 0 45 -2 12 -4 2 -4 -23z"/>
<path d="M6944 8149 c-3 -6 -1 -16 5 -22 9 -9 10 -7 5 7 -6 16 -4 18 14 14 12
-4 20 -2 16 3 -7 12 -31 11 -40 -2z"/>
<path d="M7026 8151 c-4 -5 3 -7 14 -4 23 6 26 13 6 13 -8 0 -17 -4 -20 -9z"/>
<path d="M7094 8146 c-3 -8 -4 -25 -2 -38 2 -17 10 -23 31 -24 25 -1 27 2 27
35 0 32 -3 37 -25 39 -15 1 -28 -4 -31 -12z m41 -26 c0 -16 -6 -26 -17 -28
-14 -3 -18 3 -18 28 0 25 4 31 18 28 11 -2 17 -12 17 -28z"/>
<path d="M7190 8156 c0 -2 7 -7 16 -10 8 -3 12 -2 9 4 -6 10 -25 14 -25 6z"/>
<path d="M7300 8156 c0 -2 7 -7 16 -10 8 -3 12 -2 9 4 -6 10 -25 14 -25 6z"/>
<path d="M7467 8153 c6 -4 13 -24 16 -43 4 -34 4 -33 3 4 -1 26 -6 41 -16 43
-10 3 -11 2 -3 -4z"/>
<path d="M7522 8148 c-22 -22 -7 -68 22 -68 5 0 2 6 -8 13 -25 18 -17 52 11
51 12 0 20 3 17 8 -7 12 -28 10 -42 -4z"/>
<path d="M7593 8120 c0 -25 2 -35 4 -22 2 12 2 32 0 45 -2 12 -4 2 -4 -23z"/>
<path d="M7623 8105 c0 -33 2 -45 4 -27 2 18 2 45 0 60 -2 15 -4 0 -4 -33z"/>
<path d="M7648 8153 c7 -3 16 -2 19 1 4 3 -2 6 -13 5 -11 0 -14 -3 -6 -6z"/>
<path d="M7746 8151 c-3 -5 3 -7 14 -4 11 3 20 0 20 -6 0 -6 -12 -11 -26 -11
-18 0 -25 -5 -22 -16 4 -24 35 -41 48 -28 8 8 4 10 -11 10 -12 -1 -24 5 -26
12 -3 7 5 12 22 12 20 0 26 4 23 17 -4 20 -33 29 -42 14z"/>
<path d="M7814 8149 c-3 -6 -1 -16 5 -22 9 -9 10 -7 5 7 -6 16 -4 18 14 14 12
-4 20 -2 16 3 -7 12 -31 11 -40 -2z"/>
<path d="M5324 8129 c-10 -17 13 -36 27 -22 12 12 4 33 -11 33 -5 0 -12 -5
-16 -11z"/>
<path d="M5642 8120 c0 -14 2 -19 5 -12 2 6 2 18 0 25 -3 6 -5 1 -5 -13z"/>
<path d="M5692 8120 c0 -14 2 -19 5 -12 2 6 2 18 0 25 -3 6 -5 1 -5 -13z"/>
<path d="M6393 8130 c-28 -12 -30 -20 -3 -13 25 7 26 -12 3 -26 -16 -9 -15
-10 5 -8 17 1 22 7 22 29 0 15 -1 28 -2 27 -2 0 -13 -4 -25 -9z"/>
<path d="M7043 8130 c-28 -12 -30 -20 -3 -13 25 7 26 -12 3 -26 -16 -9 -15
-10 5 -8 17 1 22 7 22 29 0 15 -1 28 -2 27 -2 0 -13 -4 -25 -9z"/>
<path d="M7171 8111 c1 -16 3 -19 6 -9 2 9 14 18 26 20 20 3 19 4 -5 9 -25 6
-28 4 -27 -20z"/>
<path d="M7672 8120 c0 -14 2 -19 5 -12 2 6 2 18 0 25 -3 6 -5 1 -5 -13z"/>
<path d="M7847 8103 c5 -13 2 -15 -17 -10 -16 4 -20 3 -12 -5 14 -14 42 -3 42
17 0 8 -4 15 -10 15 -5 0 -7 -7 -3 -17z"/>
<path d="M5520 8094 c-17 -9 -20 -14 -9 -14 9 0 22 7 29 15 15 18 13 18 -20
-1z"/>
<path d="M5730 8100 c0 -5 5 -10 10 -10 6 0 10 5 10 10 0 6 -4 10 -10 10 -5 0
-10 -4 -10 -10z"/>
<path d="M5997 8088 c2 -5 10 -8 18 -8 8 0 16 3 18 8 3 4 -5 7 -18 7 -13 0
-21 -3 -18 -7z"/>
<path d="M6077 8089 c7 -7 15 -10 18 -7 3 3 -2 9 -12 12 -14 6 -15 5 -6 -5z"/>
<path d="M6157 8089 c7 -7 15 -10 18 -7 3 3 -2 9 -12 12 -14 6 -15 5 -6 -5z"/>
<path d="M6527 8089 c7 -7 15 -10 18 -7 3 3 -2 9 -12 12 -14 6 -15 5 -6 -5z"/>
<path d="M6560 8079 c0 -17 -5 -20 -21 -16 -16 4 -19 3 -11 -5 16 -16 42 -2
42 22 0 11 -2 20 -5 20 -3 0 -5 -10 -5 -21z"/>
<path d="M6607 8089 c7 -7 15 -10 18 -7 3 3 -2 9 -12 12 -14 6 -15 5 -6 -5z"/>
<path d="M6717 8089 c7 -7 15 -10 18 -7 3 3 -2 9 -12 12 -14 6 -15 5 -6 -5z"/>
<path d="M6877 8089 c7 -7 15 -10 18 -7 3 3 -2 9 -12 12 -14 6 -15 5 -6 -5z"/>
<path d="M6947 8088 c2 -5 10 -8 18 -8 8 0 16 3 18 8 3 4 -5 7 -18 7 -13 0
-21 -3 -18 -7z"/>
<path d="M7310 8090 c-9 -6 -10 -10 -3 -10 6 0 15 5 18 10 8 12 4 12 -15 0z"/>
<path d="M7097 8058 c2 -5 10 -8 18 -8 8 0 16 3 18 8 3 4 -5 7 -18 7 -13 0
-21 -3 -18 -7z"/>
<path d="M6473 7915 c0 -33 2 -45 4 -27 2 18 2 45 0 60 -2 15 -4 0 -4 -33z"/>
<path d="M6973 7915 c0 -33 2 -45 4 -27 2 18 2 45 0 60 -2 15 -4 0 -4 -33z"/>
<path d="M5500 7956 c0 -2 9 -6 20 -9 11 -3 18 -1 14 4 -5 9 -34 13 -34 5z"/>
<path d="M6069 7949 c-2 -29 3 -74 9 -81 4 -4 6 13 5 38 -1 43 -12 74 -14 43z"/>
<path d="M6429 7949 c-2 -29 3 -74 9 -81 4 -4 6 13 5 38 -1 43 -12 74 -14 43z"/>
<path d="M6579 7949 c-2 -29 3 -74 9 -81 4 -4 6 13 5 38 -1 43 -12 74 -14 43z"/>
<path d="M5480 7931 c0 -10 19 -25 25 -20 1 2 -3 10 -11 17 -8 7 -14 8 -14 3z"/>
<path d="M5597 7933 c6 -4 13 -24 16 -43 4 -34 4 -33 3 4 -1 26 -6 41 -16 43
-10 3 -11 2 -3 -4z"/>
<path d="M5756 7923 c-6 -14 -5 -15 5 -6 7 7 10 15 7 18 -3 3 -9 -2 -12 -12z"/>
<path d="M5861 7896 c2 -34 3 -36 6 -11 3 17 9 35 14 41 5 7 3 11 -6 11 -11 0
-15 -11 -14 -41z"/>
<path d="M5917 7933 c-3 -5 5 -8 18 -8 13 0 21 3 18 8 -2 4 -10 7 -18 7 -8 0
-16 -3 -18 -7z"/>
<path d="M6033 7900 c0 -25 2 -35 4 -22 2 12 2 32 0 45 -2 12 -4 2 -4 -23z"/>
<path d="M6130 7936 c0 -2 7 -7 16 -10 8 -3 12 -2 9 4 -6 10 -25 14 -25 6z"/>
<path d="M6195 7930 c-3 -6 1 -7 9 -4 18 7 21 14 7 14 -6 0 -13 -4 -16 -10z"/>
<path d="M6277 7933 c-3 -5 5 -8 18 -8 13 0 21 3 18 8 -2 4 -10 7 -18 7 -8 0
-16 -3 -18 -7z"/>
<path d="M6393 7900 c0 -25 2 -35 4 -22 2 12 2 32 0 45 -2 12 -4 2 -4 -23z"/>
<path d="M6516 7931 c-3 -5 3 -7 14 -4 11 3 20 0 20 -6 0 -6 -12 -11 -26 -11
-18 0 -25 -5 -22 -16 4 -24 35 -41 48 -28 8 8 4 10 -11 10 -12 -1 -24 5 -26
12 -3 7 5 12 22 12 20 0 26 4 23 17 -4 20 -33 29 -42 14z"/>
<path d="M6666 7931 c-3 -5 3 -7 14 -4 11 3 20 0 20 -6 0 -6 -6 -11 -14 -11
-8 0 -17 -4 -20 -9 -4 -5 3 -7 13 -4 14 4 21 -1 24 -19 3 -12 4 -5 4 17 -2 28
-7 41 -19 43 -9 2 -19 -1 -22 -7z"/>
<path d="M6767 7933 c6 -4 13 -24 16 -43 4 -34 4 -33 3 4 -1 26 -6 41 -16 43
-10 3 -11 2 -3 -4z"/>
<path d="M6820 7925 c-6 -8 -10 -22 -7 -32 4 -14 5 -14 6 4 0 12 9 27 19 32 9
6 12 11 6 11 -6 0 -17 -7 -24 -15z"/>
<path d="M6862 7898 c-1 -33 -7 -50 -19 -57 -10 -6 -13 -11 -7 -11 22 0 35 29
31 72 l-4 43 -1 -47z"/>
<path d="M6892 7907 c-2 -40 19 -60 40 -39 8 8 5 9 -10 5 -18 -4 -21 0 -25 34
l-4 38 -1 -38z"/>
<path d="M7020 7936 c0 -2 7 -7 16 -10 8 -3 12 -2 9 4 -6 10 -25 14 -25 6z"/>
<path d="M7162 7907 c-2 -40 19 -60 40 -39 8 8 5 9 -10 5 -18 -4 -21 0 -25 34
l-4 38 -1 -38z"/>
<path d="M7247 7933 c-3 -5 5 -8 18 -8 13 0 21 3 18 8 -2 4 -10 7 -18 7 -8 0
-16 -3 -18 -7z"/>
<path d="M7317 7933 c-3 -5 5 -8 18 -8 13 0 21 3 18 8 -2 4 -10 7 -18 7 -8 0
-16 -3 -18 -7z"/>
<path d="M7395 7930 c-3 -6 1 -7 9 -4 18 7 21 14 7 14 -6 0 -13 -4 -16 -10z"/>
<path d="M7432 7893 c-2 -40 -6 -53 -19 -56 -17 -4 -17 -5 0 -6 23 -1 29 17
24 70 l-4 44 -1 -52z"/>
<path d="M7476 7931 c-3 -5 3 -7 14 -4 11 3 20 0 20 -6 0 -6 -12 -11 -26 -11
-18 0 -25 -5 -22 -16 4 -24 35 -41 48 -28 8 8 4 10 -11 10 -12 -1 -24 5 -26
12 -3 7 5 12 22 12 20 0 26 4 23 17 -4 20 -33 29 -42 14z"/>
<path d="M7573 7885 c0 -33 2 -45 4 -27 2 18 2 45 0 60 -2 15 -4 0 -4 -33z"/>
<path d="M7598 7933 c7 -3 16 -2 19 1 4 3 -2 6 -13 5 -11 0 -14 -3 -6 -6z"/>
<path d="M7651 7896 c2 -34 3 -36 6 -11 3 17 9 35 14 41 5 7 3 11 -6 11 -11 0
-15 -11 -14 -41z"/>
<path d="M7703 7900 c0 -25 2 -35 4 -22 2 12 2 32 0 45 -2 12 -4 2 -4 -23z"/>
<path d="M7731 7895 l2 -40 6 34 c4 21 14 37 26 42 17 6 15 7 -7 6 -26 -1 -28
-4 -27 -42z"/>
<path d="M7830 7936 c0 -2 7 -7 16 -10 8 -3 12 -2 9 4 -6 10 -25 14 -25 6z"/>
<path d="M7883 7900 c0 -25 2 -35 4 -22 2 12 2 32 0 45 -2 12 -4 2 -4 -23z"/>
<path d="M7940 7936 c0 -2 7 -7 16 -10 8 -3 12 -2 9 4 -6 10 -25 14 -25 6z"/>
<path d="M8050 7936 c0 -2 7 -7 16 -10 8 -3 12 -2 9 4 -6 10 -25 14 -25 6z"/>
<path d="M8115 7930 c-3 -6 1 -7 9 -4 18 7 21 14 7 14 -6 0 -13 -4 -16 -10z"/>
<path d="M5324 7909 c-10 -17 13 -36 27 -22 12 12 4 33 -11 33 -5 0 -12 -5
-16 -11z"/>
<path d="M5642 7900 c0 -14 2 -19 5 -12 2 6 2 18 0 25 -3 6 -5 1 -5 -13z"/>
<path d="M5692 7900 c0 -14 2 -19 5 -12 2 6 2 18 0 25 -3 6 -5 1 -5 -13z"/>
<path d="M6111 7891 c1 -16 3 -19 6 -9 2 9 14 18 26 20 20 3 19 4 -5 9 -25 6
-28 4 -27 -20z"/>
<path d="M7622 7900 c0 -14 2 -19 5 -12 2 6 2 18 0 25 -3 6 -5 1 -5 -13z"/>
<path d="M7782 7890 c0 -19 2 -27 5 -17 2 9 2 25 0 35 -3 9 -5 1 -5 -18z"/>
<path d="M8031 7891 c1 -16 3 -19 6 -9 2 9 14 18 26 20 20 3 19 4 -5 9 -25 6
-28 4 -27 -20z"/>
<path d="M7028 7903 c7 -3 16 -2 19 1 4 3 -2 6 -13 5 -11 0 -14 -3 -6 -6z"/>
<path d="M7314 7895 c-7 -17 3 -35 19 -34 9 0 9 2 0 6 -21 8 -15 31 10 36 l22
4 -23 2 c-12 0 -25 -6 -28 -14z"/>
<path d="M7003 7886 c1 -11 9 -21 17 -23 10 -3 11 -2 4 4 -6 4 -14 15 -17 23
-5 11 -6 9 -4 -4z"/>
<path d="M7276 7886 c6 -16 4 -18 -14 -14 -12 4 -20 2 -16 -3 7 -12 31 -11 40
2 3 6 1 16 -5 22 -9 9 -10 7 -5 -7z"/>
<path d="M5520 7874 c-17 -9 -20 -14 -9 -14 9 0 22 7 29 15 15 18 13 18 -20
-1z"/>
<path d="M5730 7880 c0 -5 5 -10 10 -10 6 0 10 5 10 10 0 6 -4 10 -10 10 -5 0
-10 -4 -10 -10z"/>
<path d="M5917 7868 c2 -5 10 -8 18 -8 8 0 16 3 18 8 3 4 -5 7 -18 7 -13 0
-21 -3 -18 -7z"/>
<path d="M5997 7869 c7 -7 15 -10 18 -7 3 3 -2 9 -12 12 -14 6 -15 5 -6 -5z"/>
<path d="M6277 7868 c2 -5 10 -8 18 -8 8 0 16 3 18 8 3 4 -5 7 -18 7 -13 0
-21 -3 -18 -7z"/>
<path d="M6357 7869 c7 -7 15 -10 18 -7 3 3 -2 9 -12 12 -14 6 -15 5 -6 -5z"/>
<path d="M6667 7869 c7 -7 15 -10 18 -7 3 3 -2 9 -12 12 -14 6 -15 5 -6 -5z"/>
<path d="M7397 7869 c7 -7 15 -10 18 -7 3 3 -2 9 -12 12 -14 6 -15 5 -6 -5z"/>
<path d="M7840 7870 c-9 -6 -10 -10 -3 -10 6 0 15 5 18 10 8 12 4 12 -15 0z"/>
<path d="M7950 7870 c-9 -6 -10 -10 -3 -10 6 0 15 5 18 10 8 12 4 12 -15 0z"/>
<path d="M6993 7695 c0 -33 2 -45 4 -27 2 18 2 45 0 60 -2 15 -4 0 -4 -33z"/>
<path d="M5500 7736 c0 -2 9 -6 20 -9 11 -3 18 -1 14 4 -5 9 -34 13 -34 5z"/>
<path d="M6529 7729 c-2 -29 3 -74 9 -81 4 -4 6 13 5 38 -1 43 -12 74 -14 43z"/>
<path d="M5480 7711 c0 -10 19 -25 25 -20 1 2 -3 10 -11 17 -8 7 -14 8 -14 3z"/>
<path d="M5597 7713 c6 -4 13 -24 16 -43 4 -34 4 -33 3 4 -1 26 -6 41 -16 43
-10 3 -11 2 -3 -4z"/>
<path d="M5756 7703 c-6 -14 -5 -15 5 -6 7 7 10 15 7 18 -3 3 -9 -2 -12 -12z"/>
<path d="M5947 7713 c-3 -5 5 -8 18 -8 13 0 21 3 18 8 -2 4 -10 7 -18 7 -8 0
-16 -3 -18 -7z"/>
<path d="M6047 7713 c6 -4 13 -24 16 -43 4 -34 4 -33 3 4 -1 26 -6 41 -16 43
-10 3 -11 2 -3 -4z"/>
<path d="M6080 7716 c0 -2 7 -7 16 -10 8 -3 12 -2 9 4 -6 10 -25 14 -25 6z"/>
<path d="M6160 7716 c0 -2 7 -7 16 -10 8 -3 12 -2 9 4 -6 10 -25 14 -25 6z"/>
<path d="M6227 7713 c-3 -5 5 -8 18 -8 13 0 21 3 18 8 -2 4 -10 7 -18 7 -8 0
-16 -3 -18 -7z"/>
<path d="M6327 7713 c6 -4 13 -24 16 -43 4 -34 4 -33 3 4 -1 26 -6 41 -16 43
-10 3 -11 2 -3 -4z"/>
<path d="M6386 7711 c-3 -5 3 -7 14 -4 11 3 20 0 20 -6 0 -6 -12 -11 -26 -11
-18 0 -25 -5 -22 -16 4 -24 35 -41 48 -28 8 8 4 10 -11 10 -12 -1 -24 5 -26
12 -3 7 5 12 22 12 20 0 26 4 23 17 -4 20 -33 29 -42 14z"/>
<path d="M6477 7713 c6 -4 13 -24 16 -43 4 -34 4 -33 3 4 -1 26 -6 41 -16 43
-10 3 -11 2 -3 -4z"/>
<path d="M6574 7709 c-3 -6 -1 -16 5 -22 9 -9 10 -7 5 7 -6 16 -4 18 14 14 12
-4 20 -2 16 3 -7 12 -31 11 -40 -2z"/>
<path d="M6686 7711 c-3 -5 3 -7 14 -4 11 3 20 0 20 -6 0 -6 -6 -11 -14 -11
-8 0 -17 -4 -20 -9 -4 -5 3 -7 13 -4 14 4 21 -1 24 -19 3 -12 4 -5 4 17 -2 28
-7 41 -19 43 -9 2 -19 -1 -22 -7z"/>
<path d="M6787 7713 c6 -4 13 -24 16 -43 4 -34 4 -33 3 4 -1 26 -6 41 -16 43
-10 3 -11 2 -3 -4z"/>
<path d="M6834 7706 c-3 -8 -4 -25 -2 -38 2 -17 10 -23 31 -24 25 -1 27 2 27
35 0 32 -3 37 -25 39 -15 1 -28 -4 -31 -12z m41 -26 c0 -16 -6 -26 -17 -28
-14 -3 -18 3 -18 28 0 25 4 31 18 28 11 -2 17 -12 17 -28z"/>
<path d="M6912 7687 c-2 -40 19 -60 40 -39 8 8 5 9 -10 5 -18 -4 -21 0 -25 34
l-4 38 -1 -38z"/>
<path d="M7027 7713 c-3 -5 5 -8 18 -8 13 0 21 3 18 8 -2 4 -10 7 -18 7 -8 0
-16 -3 -18 -7z"/>
<path d="M7182 7687 c-2 -40 19 -60 40 -39 8 8 5 9 -10 5 -18 -4 -21 0 -25 34
l-4 38 -1 -38z"/>
<path d="M7267 7713 c-3 -5 5 -8 18 -8 13 0 21 3 18 8 -2 4 -10 7 -18 7 -8 0
-16 -3 -18 -7z"/>
<path d="M7336 7711 c-3 -5 3 -7 14 -4 11 3 20 0 20 -6 0 -6 -6 -11 -14 -11
-8 0 -17 -4 -20 -9 -4 -5 3 -7 13 -4 14 4 21 -1 24 -19 3 -12 4 -5 4 17 -2 28
-7 41 -19 43 -9 2 -19 -1 -22 -7z"/>
<path d="M7415 7710 c-3 -6 1 -7 9 -4 18 7 21 14 7 14 -6 0 -13 -4 -16 -10z"/>
<path d="M7452 7673 c-2 -40 -6 -53 -19 -56 -17 -4 -17 -5 0 -6 23 -1 29 17
24 70 l-4 44 -1 -52z"/>
<path d="M7593 7665 c0 -33 2 -45 4 -27 2 18 2 45 0 60 -2 15 -4 0 -4 -33z"/>
<path d="M7618 7713 c7 -3 16 -2 19 1 4 3 -2 6 -13 5 -11 0 -14 -3 -6 -6z"/>
<path d="M7673 7680 c0 -25 2 -35 4 -22 2 12 2 32 0 45 -2 12 -4 2 -4 -23z"/>
<path d="M7723 7680 c0 -25 2 -35 4 -22 2 12 2 32 0 45 -2 12 -4 2 -4 -23z"/>
<path d="M7751 7675 l2 -40 6 34 c4 21 14 37 26 42 17 6 15 7 -7 6 -26 -1 -28
-4 -27 -42z"/>
<path d="M7850 7716 c0 -2 7 -7 16 -10 8 -3 12 -2 9 4 -6 10 -25 14 -25 6z"/>
<path d="M7903 7680 c0 -25 2 -35 4 -22 2 12 2 32 0 45 -2 12 -4 2 -4 -23z"/>
<path d="M7960 7716 c0 -2 7 -7 16 -10 8 -3 12 -2 9 4 -6 10 -25 14 -25 6z"/>
<path d="M8070 7716 c0 -2 7 -7 16 -10 8 -3 12 -2 9 4 -6 10 -25 14 -25 6z"/>
<path d="M8124 7709 c-3 -6 -1 -16 5 -22 9 -9 10 -7 5 7 -6 16 -4 18 14 14 12
-4 20 -2 16 3 -7 12 -31 11 -40 -2z"/>
<path d="M5324 7689 c-10 -17 13 -36 27 -22 12 12 4 33 -11 33 -5 0 -12 -5
-16 -11z"/>
<path d="M5642 7680 c0 -14 2 -19 5 -12 2 6 2 18 0 25 -3 6 -5 1 -5 -13z"/>
<path d="M5692 7680 c0 -14 2 -19 5 -12 2 6 2 18 0 25 -3 6 -5 1 -5 -13z"/>
<path d="M5862 7680 c0 -14 2 -19 5 -12 2 6 2 18 0 25 -3 6 -5 1 -5 -13z"/>
<path d="M7480 7680 c0 -18 19 -40 35 -40 5 0 2 5 -7 11 -26 14 -22 29 7 29
14 0 25 3 25 8 0 4 -13 7 -30 7 -20 0 -30 -5 -30 -15z"/>
<path d="M7642 7680 c0 -14 2 -19 5 -12 2 6 2 18 0 25 -3 6 -5 1 -5 -13z"/>
<path d="M7802 7670 c0 -19 2 -27 5 -17 2 9 2 25 0 35 -3 9 -5 1 -5 -18z"/>
<path d="M8051 7671 c1 -16 3 -19 6 -9 2 9 14 18 26 20 20 3 19 4 -5 9 -25 6
-28 4 -27 -20z"/>
<path d="M7024 7675 c-7 -17 3 -35 19 -34 9 0 9 2 0 6 -21 8 -15 31 10 36 l22
4 -23 2 c-12 0 -25 -6 -28 -14z"/>
<path d="M6607 7663 c5 -13 2 -15 -17 -10 -16 4 -20 3 -12 -5 14 -14 42 -3 42
17 0 8 -4 15 -10 15 -5 0 -7 -7 -3 -17z"/>
<path d="M7296 7666 c6 -16 4 -18 -14 -14 -12 4 -20 2 -16 -3 7 -12 31 -11 40
2 3 6 1 16 -5 22 -9 9 -10 7 -5 -7z"/>
<path d="M5520 7654 c-17 -9 -20 -14 -9 -14 9 0 22 7 29 15 15 18 13 18 -20
-1z"/>
<path d="M5730 7660 c0 -5 5 -10 10 -10 6 0 10 5 10 10 0 6 -4 10 -10 10 -5 0
-10 -4 -10 -10z"/>
<path d="M5947 7648 c2 -5 10 -8 18 -8 8 0 16 3 18 8 3 4 -5 7 -18 7 -13 0
-21 -3 -18 -7z"/>
<path d="M6170 7650 c-9 -6 -10 -10 -3 -10 6 0 15 5 18 10 8 12 4 12 -15 0z"/>
<path d="M6227 7648 c2 -5 10 -8 18 -8 8 0 16 3 18 8 3 4 -5 7 -18 7 -13 0
-21 -3 -18 -7z"/>
<path d="M6687 7649 c7 -7 15 -10 18 -7 3 3 -2 9 -12 12 -14 6 -15 5 -6 -5z"/>
<path d="M7337 7649 c7 -7 15 -10 18 -7 3 3 -2 9 -12 12 -14 6 -15 5 -6 -5z"/>
<path d="M7417 7649 c7 -7 15 -10 18 -7 3 3 -2 9 -12 12 -14 6 -15 5 -6 -5z"/>
<path d="M7860 7650 c-9 -6 -10 -10 -3 -10 6 0 15 5 18 10 8 12 4 12 -15 0z"/>
<path d="M7970 7650 c-9 -6 -10 -10 -3 -10 6 0 15 5 18 10 8 12 4 12 -15 0z"/>
<path d="M8127 7648 c2 -5 10 -8 18 -8 8 0 16 3 18 8 3 4 -5 7 -18 7 -13 0
-21 -3 -18 -7z"/>
<path d="M6837 7618 c2 -5 10 -8 18 -8 8 0 16 3 18 8 3 4 -5 7 -18 7 -13 0
-21 -3 -18 -7z"/>
<path d="M6960 6455 c0 -43 4 -75 10 -75 6 0 10 32 10 75 0 43 -4 75 -10 75
-6 0 -10 -32 -10 -75z"/>
<path d="M7015 6520 c4 -6 11 -8 16 -5 14 9 11 15 -7 15 -8 0 -12 -5 -9 -10z"/>
<path d="M5950 6500 c-39 -39 -12 -120 39 -120 20 0 51 25 51 41 0 15 -17 10
-24 -6 -9 -24 -45 -18 -58 10 -8 19 -8 31 0 50 13 28 49 34 58 10 7 -16 24
-21 24 -6 0 16 -31 41 -51 41 -10 0 -28 -9 -39 -20z"/>
<path d="M6290 6506 c0 -8 -6 -17 -12 -20 -10 -5 -10 -7 0 -12 6 -3 12 -23 12
-45 0 -38 21 -62 38 -44 4 4 1 10 -5 12 -16 6 -17 65 -1 81 9 9 9 12 0 12 -7
0 -12 7 -12 15 0 8 -4 15 -10 15 -5 0 -10 -6 -10 -14z"/>
<path d="M7169 6503 c-6 -70 17 -141 38 -120 3 4 1 13 -5 19 -16 16 -15 65 1
72 10 5 10 7 0 12 -7 3 -13 12 -13 20 0 20 -20 17 -21 -3z"/>
<path d="M6060 6453 c0 -52 13 -68 55 -69 l35 -1 0 53 c0 64 -17 73 -22 12 -2
-35 -7 -43 -23 -43 -16 0 -21 8 -23 43 -4 52 -22 56 -22 5z"/>
<path d="M6193 6483 c-25 -9 -14 -44 17 -54 38 -14 28 -32 -13 -24 -30 6 -31
5 -13 -10 25 -19 50 -19 66 0 15 17 6 33 -26 45 -37 14 -30 33 8 24 29 -6 31
-5 19 10 -13 16 -34 19 -58 9z"/>
<path d="M6358 6479 c-12 -6 -18 -22 -18 -45 0 -27 5 -37 26 -46 34 -16 58 0
62 41 5 52 -27 75 -70 50z m47 -44 c0 -23 -4 -30 -20 -30 -21 0 -31 25 -21 51
11 28 41 12 41 -21z"/>
<path d="M6460 6434 c0 -30 5 -54 10 -54 6 0 10 20 10 45 0 38 3 45 20 45 17
0 20 -7 20 -45 0 -57 18 -59 22 -3 2 31 8 44 21 46 14 3 17 -4 17 -42 0 -26 5
-46 11 -46 6 0 9 21 7 53 l-3 52 -67 1 -68 1 0 -53z"/>
<path d="M6646 6474 c-34 -33 -7 -99 37 -92 31 5 31 24 1 23 -15 0 -29 6 -31
13 -3 8 7 12 31 12 38 0 43 8 26 41 -13 23 -43 25 -64 3z m49 -14 c4 -6 -5
-10 -20 -10 -15 0 -24 4 -20 10 3 6 12 10 20 10 8 0 17 -4 20 -10z"/>
<path d="M6740 6434 c0 -30 5 -54 10 -54 6 0 10 18 10 40 0 27 5 43 15 46 23
9 18 22 -10 22 -24 0 -25 -4 -25 -54z"/>
<path d="M6823 6483 c-25 -9 -14 -44 17 -54 17 -6 30 -16 30 -21 0 -6 -12 -8
-30 -4 -36 7 -41 -11 -5 -20 27 -7 55 9 55 31 0 7 -13 18 -30 24 -41 14 -40
35 2 25 29 -6 31 -5 19 10 -13 16 -34 19 -58 9z"/>
<path d="M7010 6435 c0 -30 5 -55 10 -55 6 0 10 25 10 55 0 30 -4 55 -10 55
-5 0 -10 -25 -10 -55z"/>
<path d="M7070 6475 c-15 -17 -6 -33 26 -45 37 -14 30 -34 -8 -26 -30 6 -32 5
-16 -10 22 -23 68 -11 68 17 0 13 -10 24 -30 30 -16 6 -30 16 -30 21 0 6 12 8
30 5 31 -7 42 6 14 17 -25 10 -41 7 -54 -9z"/>
<path d="M9113 5995 c0 -33 2 -45 4 -27 2 18 2 45 0 60 -2 15 -4 0 -4 -33z"/>
<path d="M9193 5995 c0 -33 2 -45 4 -27 2 18 2 45 0 60 -2 15 -4 0 -4 -33z"/>
<path d="M9743 5995 c0 -33 2 -45 4 -27 2 18 2 45 0 60 -2 15 -4 0 -4 -33z"/>
<path d="M10413 5995 c0 -33 2 -45 4 -27 2 18 2 45 0 60 -2 15 -4 0 -4 -33z"/>
<path d="M6012 5988 c1 -44 2 -46 5 -15 2 20 7 37 11 37 4 0 16 -16 26 -35 11
-19 23 -35 28 -35 4 0 7 24 7 53 -2 51 -2 51 -8 12 l-6 -40 -25 37 c-14 21
-28 38 -32 38 -5 0 -7 -24 -6 -52z"/>
<path d="M7140 5990 c0 -46 2 -50 23 -50 30 0 47 18 47 50 0 32 -17 50 -47 50
-21 0 -23 -4 -23 -50z m55 0 c0 -29 -4 -36 -22 -38 -21 -3 -23 1 -23 38 0 37
2 41 23 38 18 -2 22 -9 22 -38z"/>
<path d="M7619 6029 c-2 -29 3 -74 9 -81 4 -4 6 13 5 38 -1 43 -12 74 -14 43z"/>
<path d="M8547 6034 c-15 -15 -6 -34 23 -49 17 -9 28 -20 25 -25 -8 -13 -42
-13 -48 0 -3 6 -4 5 -3 -2 4 -18 34 -22 51 -8 19 16 9 37 -21 44 -13 4 -24 13
-24 21 0 17 36 21 43 5 3 -6 4 -5 3 2 -3 14 -38 23 -49 12z"/>
<path d="M9001 6022 c-17 -31 -13 -40 5 -14 9 13 14 26 11 29 -3 2 -10 -4 -16
-15z"/>
<path d="M9620 5990 l0 -50 33 1 c30 2 30 2 5 6 -19 3 -28 10 -28 23 0 13 9
20 28 23 l27 4 -27 2 c-17 0 -28 7 -28 15 0 8 12 17 28 19 25 4 25 4 -5 6
l-33 1 0 -50z"/>
<path d="M9808 6027 c-2 -7 -1 -25 3 -42 7 -30 7 -30 8 -3 0 14 5 28 10 30 5
2 3 8 -4 15 -10 9 -14 9 -17 0z"/>
<path d="M10250 5990 c0 -43 3 -50 19 -50 25 0 51 26 51 50 0 24 -26 50 -51
50 -16 0 -19 -7 -19 -50z m54 18 c13 -21 -2 -51 -28 -56 -13 -3 -16 5 -16 38
0 33 3 41 16 38 9 -2 22 -11 28 -20z"/>
<path d="M10518 6027 c-2 -7 -1 -25 3 -42 7 -30 7 -30 8 -3 0 14 5 28 10 30 5
2 3 8 -4 15 -10 9 -14 9 -17 0z"/>
<path d="M6115 6010 c-3 -5 0 -7 9 -4 8 3 21 2 28 -2 9 -6 5 -10 -12 -14 -36
-9 -34 -45 3 -46 23 -1 27 3 27 25 0 40 -38 68 -55 41z m43 -42 c-7 -19 -38
-22 -38 -4 0 10 9 16 21 16 12 0 19 -5 17 -12z"/>
<path d="M6193 5980 c0 -25 2 -35 4 -22 2 12 2 32 0 45 -2 12 -4 2 -4 -23z"/>
<path d="M6218 6013 c6 -3 13 -21 13 -41 l2 -37 6 35 c4 22 12 35 21 35 9 0
17 -13 21 -35 6 -34 6 -34 8 -5 1 42 -9 52 -49 52 -19 0 -29 -2 -22 -4z"/>
<path d="M6314 6006 c-11 -27 1 -61 21 -64 18 -2 18 -2 3 8 -26 16 -22 30 7
30 27 0 32 9 13 28 -16 16 -37 15 -44 -2z m41 -6 c3 -5 -3 -10 -14 -10 -12 0
-21 5 -21 10 0 6 6 10 14 10 8 0 18 -4 21 -10z"/>
<path d="M7241 6006 c-16 -19 -11 -46 11 -60 12 -7 21 -7 28 0 8 8 4 10 -11
10 -12 -1 -24 5 -26 12 -3 7 5 12 22 12 20 0 26 4 23 17 -4 23 -31 28 -47 9z
m39 -6 c0 -5 -9 -10 -21 -10 -11 0 -17 5 -14 10 3 6 13 10 21 10 8 0 14 -4 14
-10z"/>
<path d="M7314 6009 c-3 -6 -1 -16 5 -22 9 -9 10 -7 5 7 -6 16 -4 18 14 14 12
-4 20 -2 16 3 -7 12 -31 11 -40 -2z"/>
<path d="M7393 6013 c-19 -7 -16 -60 4 -67 9 -4 21 -2 26 3 6 6 2 9 -9 8 -14
-2 -19 5 -19 23 0 18 5 25 17 24 10 -1 15 2 12 7 -6 10 -12 10 -31 2z"/>
<path d="M7465 6010 c-3 -6 1 -7 9 -4 18 7 21 14 7 14 -6 0 -13 -4 -16 -10z"/>
<path d="M7503 5980 c0 -25 2 -35 4 -22 2 12 2 32 0 45 -2 12 -4 2 -4 -23z"/>
<path d="M7545 6011 c-4 -7 0 -8 10 -4 10 3 21 0 27 -8 8 -12 9 -11 5 1 -5 18
-33 25 -42 11z"/>
<path d="M7663 5980 c0 -25 2 -35 4 -22 2 12 2 32 0 45 -2 12 -4 2 -4 -23z"/>
<path d="M7702 6008 c-23 -23 -7 -68 25 -68 21 0 35 37 23 60 -12 23 -30 26
-48 8z m42 -13 c8 -21 -3 -45 -20 -45 -18 0 -28 24 -20 45 3 8 12 15 20 15 7
0 16 -7 20 -15z"/>
<path d="M7807 6013 c6 -4 13 -24 16 -43 4 -34 4 -33 3 4 -1 26 -6 41 -16 43
-10 3 -11 2 -3 -4z"/>
<path d="M8632 6008 c-27 -27 -8 -69 31 -67 7 0 2 4 -10 9 -31 12 -29 30 2 30
14 0 25 4 25 8 0 9 -21 32 -30 32 -3 0 -11 -5 -18 -12z m33 -8 c3 -5 -3 -10
-15 -10 -12 0 -18 5 -15 10 3 6 10 10 15 10 5 0 12 -4 15 -10z"/>
<path d="M8701 6003 c12 -20 12 -26 0 -45 -13 -21 -13 -22 2 -9 14 11 20 11
34 0 15 -13 15 -12 2 9 -12 19 -12 25 0 45 13 20 13 21 -2 8 -14 -11 -20 -11
-34 0 -15 13 -15 12 -2 -8z"/>
<path d="M9075 6010 c-3 -6 1 -7 9 -4 18 7 21 14 7 14 -6 0 -13 -4 -16 -10z"/>
<path d="M9155 6010 c-3 -6 1 -7 9 -4 18 7 21 14 7 14 -6 0 -13 -4 -16 -10z"/>
<path d="M9705 6010 c-3 -6 1 -7 9 -4 18 7 21 14 7 14 -6 0 -13 -4 -16 -10z"/>
<path d="M9783 5980 c0 -25 2 -35 4 -22 2 12 2 32 0 45 -2 12 -4 2 -4 -23z"/>
<path d="M10346 6011 c-3 -5 3 -7 14 -4 11 3 20 0 20 -6 0 -6 -11 -11 -25 -11
-28 0 -29 -3 -15 -31 11 -20 35 -25 44 -10 4 5 -2 7 -13 4 -11 -3 -21 2 -24
11 -5 12 0 16 19 16 19 0 25 5 22 17 -4 20 -33 29 -42 14z"/>
<path d="M10456 6011 c-3 -5 3 -7 14 -4 11 3 20 0 20 -6 0 -6 -11 -11 -25 -11
-28 0 -29 -3 -15 -31 11 -20 35 -25 44 -10 4 5 -2 7 -13 4 -11 -3 -21 2 -24
11 -5 12 0 16 19 16 19 0 25 5 22 17 -4 20 -33 29 -42 14z"/>
<path d="M10576 6011 c-3 -5 3 -7 14 -4 11 3 20 0 20 -6 0 -6 -11 -11 -25 -11
-28 0 -29 -3 -15 -31 11 -20 35 -25 44 -10 4 5 -2 7 -13 4 -11 -3 -21 2 -24
11 -5 12 0 16 19 16 19 0 25 5 22 17 -4 20 -33 29 -42 14z"/>
<path d="M9024 5998 c4 -14 0 -18 -18 -18 -13 0 -27 -7 -30 -16 -9 -24 -7 -31
5 -11 5 9 21 17 34 17 27 0 30 7 14 30 -9 13 -10 12 -5 -2z"/>
<path d="M7347 5963 c5 -13 2 -15 -17 -10 -16 4 -20 3 -12 -5 14 -14 42 -3 42
17 0 8 -4 15 -10 15 -5 0 -7 -7 -3 -17z"/>
<path d="M7580 5961 c0 -8 -8 -11 -20 -8 -11 3 -18 1 -14 -4 3 -5 11 -9 19 -9
16 0 30 18 21 27 -3 4 -6 1 -6 -6z"/>
<path d="M9077 5949 c7 -7 15 -10 18 -7 3 3 -2 9 -12 12 -14 6 -15 5 -6 -5z"/>
<path d="M9157 5949 c7 -7 15 -10 18 -7 3 3 -2 9 -12 12 -14 6 -15 5 -6 -5z"/>
<path d="M9707 5949 c7 -7 15 -10 18 -7 3 3 -2 9 -12 12 -14 6 -15 5 -6 -5z"/>
<path d="M5920 5780 c0 -7 847 -10 2520 -10 1673 0 2520 3 2520 10 0 7 -847
10 -2520 10 -1673 0 -2520 -3 -2520 -10z"/>
<path d="M9073 5443 c54 -2 139 -2 190 0 51 1 7 3 -98 3 -104 0 -146 -2 -92
-3z"/>
<path d="M9712 5443 c48 -2 129 -2 180 0 51 1 12 3 -87 3 -99 0 -141 -2 -93
-3z"/>
<path d="M10378 5443 c72 -2 192 -2 265 0 72 1 13 3 -133 3 -146 0 -205 -2
-132 -3z"/>
<path d="M8963 5350 c0 -47 2 -66 4 -42 2 23 2 61 0 85 -2 23 -4 4 -4 -43z"/>
<path d="M9363 5350 c0 -47 2 -66 4 -42 2 23 2 61 0 85 -2 23 -4 4 -4 -43z"/>
<path d="M9613 5350 c0 -47 2 -66 4 -42 2 23 2 61 0 85 -2 23 -4 4 -4 -43z"/>
<path d="M9993 5350 c0 -47 2 -66 4 -42 2 23 2 61 0 85 -2 23 -4 4 -4 -43z"/>
<path d="M10233 5350 c0 -47 2 -66 4 -42 2 23 2 61 0 85 -2 23 -4 4 -4 -43z"/>
<path d="M10783 5350 c0 -47 2 -66 4 -42 2 23 2 61 0 85 -2 23 -4 4 -4 -43z"/>
<path d="M6363 5365 c0 -33 2 -45 4 -27 2 18 2 45 0 60 -2 15 -4 0 -4 -33z"/>
<path d="M7573 5365 c0 -33 2 -45 4 -27 2 18 2 45 0 60 -2 15 -4 0 -4 -33z"/>
<path d="M9190 5405 c0 -8 -7 -15 -15 -15 -8 0 -19 -9 -25 -20 -14 -26 3 -60
30 -60 18 0 20 7 20 55 0 30 -2 55 -5 55 -3 0 -5 -7 -5 -15z m0 -55 c0 -32
-23 -42 -34 -15 -8 21 3 45 20 45 9 0 14 -11 14 -30z"/>
<path d="M9270 5405 c0 -8 -7 -15 -15 -15 -8 0 -19 -9 -25 -20 -14 -26 3 -60
30 -60 18 0 20 7 20 55 0 30 -2 55 -5 55 -3 0 -5 -7 -5 -15z m0 -55 c0 -32
-23 -42 -34 -15 -8 21 3 45 20 45 9 0 14 -11 14 -30z"/>
<path d="M9820 5405 c0 -8 -7 -15 -15 -15 -8 0 -19 -9 -25 -20 -14 -26 3 -60
30 -60 18 0 20 7 20 55 0 30 -2 55 -5 55 -3 0 -5 -7 -5 -15z m0 -55 c0 -32
-23 -42 -34 -15 -8 21 3 45 20 45 9 0 14 -11 14 -30z"/>
<path d="M10493 5365 c0 -33 2 -45 4 -27 2 18 2 45 0 60 -2 15 -4 0 -4 -33z"/>
<path d="M7988 5400 c-5 -17 3 -90 11 -90 3 0 5 21 4 46 -1 46 -8 65 -15 44z"/>
<path d="M8547 5403 c-14 -13 -7 -84 8 -89 22 -9 45 14 45 45 0 39 -32 65 -53
44z m38 -43 c0 -25 -5 -36 -17 -38 -15 -3 -18 4 -18 38 0 34 3 41 18 38 12 -2
17 -13 17 -38z"/>
<path d="M9080 5401 c0 -5 -3 -18 -6 -28 -6 -16 -5 -16 9 2 19 23 21 35 7 35
-5 0 -10 -4 -10 -9z"/>
<path d="M9700 5360 l0 -50 33 1 c30 2 30 2 5 6 -19 3 -28 10 -28 23 0 13 9
20 28 23 l27 4 -27 2 c-17 0 -28 7 -28 15 0 8 12 17 28 19 25 4 25 4 -5 6
l-33 1 0 -50z"/>
<path d="M9888 5397 c-8 -23 7 -80 22 -85 12 -4 13 -2 3 9 -15 15 -17 56 -4
61 5 2 3 8 -4 15 -10 9 -14 9 -17 0z"/>
<path d="M10330 5360 c0 -43 3 -50 19 -50 25 0 51 26 51 50 0 24 -26 50 -51
50 -16 0 -19 -7 -19 -50z m54 18 c13 -21 -2 -51 -28 -56 -13 -3 -16 5 -16 38
0 33 3 41 16 38 9 -2 22 -11 28 -20z"/>
<path d="M10598 5397 c-8 -23 7 -80 22 -85 12 -4 13 -2 3 9 -15 15 -17 56 -4
61 5 2 3 8 -4 15 -10 9 -14 9 -17 0z"/>
<path d="M6014 5378 c-4 -7 2 -18 14 -26 28 -19 28 -36 1 -29 -16 4 -19 3 -11
-5 14 -14 42 -3 42 16 0 8 -9 18 -20 21 -26 8 -26 29 0 22 11 -3 18 -1 14 4
-8 13 -31 11 -40 -3z"/>
<path d="M6096 5381 c-3 -5 3 -7 14 -4 27 7 25 -10 -2 -22 -33 -14 -29 -40 5
-41 26 -1 28 1 25 35 -3 35 -28 55 -42 32z m34 -40 c0 -14 -18 -23 -30 -16 -6
4 -8 11 -5 16 8 12 35 12 35 0z"/>
<path d="M6163 5350 c0 -25 2 -35 4 -22 2 12 2 32 0 45 -2 12 -4 2 -4 -23z"/>
<path d="M6193 5377 c9 -7 18 -25 20 -42 4 -27 4 -26 6 8 1 49 28 51 34 2 l4
-35 -1 37 c-1 37 -2 38 -40 40 -32 2 -36 0 -23 -10z"/>
<path d="M6281 5331 c1 -32 4 -48 7 -36 4 11 16 20 27 20 16 0 20 7 20 35 0
31 -3 35 -27 36 -27 1 -28 0 -27 -55z m44 19 c0 -13 -6 -25 -12 -27 -16 -6
-27 21 -19 43 9 23 31 11 31 -16z"/>
<path d="M6401 5376 c-16 -19 -11 -46 11 -60 12 -7 21 -7 28 0 8 8 4 10 -11
10 -12 -1 -24 5 -26 12 -3 7 5 12 22 12 20 0 26 4 23 17 -4 23 -31 28 -47 9z
m39 -6 c0 -5 -9 -10 -21 -10 -11 0 -17 5 -14 10 3 6 13 10 21 10 8 0 14 -4 14
-10z"/>
<path d="M6537 5383 c6 -4 13 -24 16 -43 4 -34 4 -33 3 4 -1 26 -6 41 -16 43
-10 3 -11 2 -3 -4z"/>
<path d="M6585 5380 c-3 -5 0 -7 9 -4 8 3 21 2 28 -2 9 -6 5 -10 -12 -14 -36
-9 -34 -45 3 -46 23 -1 27 3 27 25 0 40 -38 68 -55 41z m43 -42 c-7 -19 -38
-22 -38 -4 0 10 9 16 21 16 12 0 19 -5 17 -12z"/>
<path d="M6663 5350 c0 -25 2 -35 4 -22 2 12 2 32 0 45 -2 12 -4 2 -4 -23z"/>
<path d="M6688 5383 c6 -3 13 -21 13 -41 l2 -37 6 35 c4 22 12 35 21 35 9 0
17 -13 21 -35 6 -34 6 -34 8 -5 1 42 -9 52 -49 52 -19 0 -29 -2 -22 -4z"/>
<path d="M6784 5376 c-11 -27 1 -61 21 -64 18 -2 18 -2 3 8 -26 16 -22 30 7
30 27 0 32 9 13 28 -16 16 -37 15 -44 -2z m41 -6 c3 -5 -3 -10 -14 -10 -12 0
-21 5 -21 10 0 6 6 10 14 10 8 0 18 -4 21 -10z"/>
<path d="M7144 5378 c-4 -7 2 -18 14 -26 28 -19 28 -36 1 -29 -16 4 -19 3 -11
-5 14 -14 42 -3 42 16 0 8 -9 18 -20 21 -26 8 -26 29 0 22 11 -3 18 -1 14 4
-8 13 -31 11 -40 -3z"/>
<path d="M7222 5378 c-23 -23 -7 -68 25 -68 21 0 35 37 23 60 -12 23 -30 26
-48 8z m42 -13 c8 -21 -3 -45 -20 -45 -18 0 -28 24 -20 45 3 8 12 15 20 15 7
0 16 -7 20 -15z"/>
<path d="M7305 5380 c-3 -4 4 -6 15 -3 17 5 20 0 21 -33 l2 -39 6 35 c4 22 12
35 21 35 9 0 17 -13 21 -35 6 -34 6 -34 8 -5 0 17 -3 35 -7 41 -8 12 -80 16
-87 4z"/>
<path d="M7426 5381 c-3 -5 3 -7 14 -4 11 3 20 0 20 -6 0 -6 -11 -11 -25 -11
-28 0 -29 -3 -15 -31 11 -20 35 -25 44 -10 4 5 -2 7 -13 4 -11 -3 -21 2 -24
11 -5 12 0 16 19 16 19 0 25 5 22 17 -4 20 -33 29 -42 14z"/>
<path d="M7535 5380 c-3 -6 1 -7 9 -4 18 7 21 14 7 14 -6 0 -13 -4 -16 -10z"/>
<path d="M7611 5376 c-16 -19 -11 -46 11 -60 12 -7 21 -7 28 0 8 8 4 10 -11
10 -12 -1 -24 5 -26 12 -3 7 5 12 22 12 20 0 26 4 23 17 -4 23 -31 28 -47 9z
m39 -6 c0 -5 -9 -10 -21 -10 -11 0 -17 5 -14 10 3 6 13 10 21 10 8 0 14 -4 14
-10z"/>
<path d="M7687 5383 c-13 -13 -7 -31 13 -36 11 -3 20 -11 20 -17 0 -8 -8 -10
-21 -7 -16 4 -19 3 -11 -5 14 -14 42 -3 42 16 0 8 -9 18 -20 21 -26 8 -26 29
0 22 11 -3 18 -1 14 4 -6 11 -28 12 -37 2z"/>
<path d="M7757 5383 c-4 -3 -7 -19 -7 -35 0 -31 24 -48 42 -30 7 7 4 10 -8 9
-14 -2 -19 5 -19 23 0 18 5 25 17 24 10 -1 15 2 12 7 -6 11 -28 12 -37 2z"/>
<path d="M7835 5380 c-3 -6 1 -7 9 -4 18 7 21 14 7 14 -6 0 -13 -4 -16 -10z"/>
<path d="M7873 5350 c0 -25 2 -35 4 -22 2 12 2 32 0 45 -2 12 -4 2 -4 -23z"/>
<path d="M7913 5335 c0 -33 1 -52 4 -42 2 9 11 17 18 17 8 0 16 4 19 9 4 5 -3
7 -13 4 -17 -4 -20 1 -24 34 -2 25 -4 18 -4 -22z"/>
<path d="M7944 5374 c9 -8 16 -20 16 -26 0 -6 3 -9 6 -6 8 9 -14 48 -27 48 -6
0 -3 -7 5 -16z"/>
<path d="M8033 5350 c0 -25 2 -35 4 -22 2 12 2 32 0 45 -2 12 -4 2 -4 -23z"/>
<path d="M8072 5378 c-23 -23 -7 -68 25 -68 21 0 35 37 23 60 -12 23 -30 26
-48 8z m42 -13 c8 -21 -3 -45 -20 -45 -18 0 -28 24 -20 45 3 8 12 15 20 15 7
0 16 -7 20 -15z"/>
<path d="M8177 5383 c6 -4 13 -24 16 -43 4 -34 4 -33 3 4 -1 26 -6 41 -16 43
-10 3 -11 2 -3 -4z"/>
<path d="M9850 5350 c0 -22 5 -40 10 -40 6 0 10 18 10 40 0 22 -4 40 -10 40
-5 0 -10 -18 -10 -40z"/>
<path d="M10426 5381 c-3 -5 3 -7 14 -4 11 3 20 0 20 -6 0 -6 -12 -11 -26 -11
-18 0 -25 -5 -22 -16 5 -25 35 -41 49 -27 9 9 7 11 -8 7 -13 -4 -22 0 -26 10
-5 12 0 16 19 16 19 0 25 5 22 17 -4 20 -33 29 -42 14z"/>
<path d="M10536 5381 c-3 -5 3 -7 14 -4 11 3 20 0 20 -6 0 -6 -12 -11 -26 -11
-18 0 -25 -5 -22 -16 5 -25 35 -41 49 -27 9 9 7 11 -8 7 -13 -4 -22 0 -26 10
-5 12 0 16 19 16 19 0 25 5 22 17 -4 20 -33 29 -42 14z"/>
<path d="M10656 5381 c-3 -5 3 -7 14 -4 11 3 20 0 20 -6 0 -6 -12 -11 -26 -11
-18 0 -25 -5 -22 -16 5 -25 35 -41 49 -27 9 9 7 11 -8 7 -13 -4 -22 0 -26 10
-5 12 0 16 19 16 19 0 25 5 22 17 -4 20 -33 29 -42 14z"/>
<path d="M9104 5368 c4 -14 0 -18 -18 -18 -13 0 -27 -7 -30 -16 -9 -24 -7 -31
5 -11 5 9 19 17 29 17 10 0 24 -8 30 -17 9 -15 10 -14 4 7 -3 14 -11 32 -16
40 -8 12 -9 12 -4 -2z"/>
<path d="M7537 5319 c7 -7 15 -10 18 -7 3 3 -2 9 -12 12 -14 6 -15 5 -6 -5z"/>
<path d="M9073 5253 c54 -2 139 -2 190 0 51 1 7 3 -98 3 -104 0 -146 -2 -92
-3z"/>
<path d="M9712 5253 c48 -2 129 -2 180 0 51 1 12 3 -87 3 -99 0 -141 -2 -93
-3z"/>
<path d="M10378 5253 c72 -2 192 -2 265 0 72 1 13 3 -133 3 -146 0 -205 -2
-132 -3z"/>
<path d="M7750 4006 c0 -19 -4 -22 -25 -19 -32 7 -53 -34 -39 -75 8 -22 16
-27 47 -29 l37 -1 0 74 c0 43 -4 74 -10 74 -5 0 -10 -11 -10 -24z m-5 -71 c0
-23 -4 -30 -20 -30 -21 0 -31 25 -21 51 11 28 41 12 41 -21z"/>
<path d="M7800 4020 c0 -5 5 -10 10 -10 6 0 10 5 10 10 0 6 -4 10 -10 10 -5 0
-10 -4 -10 -10z"/>
<path d="M7580 3950 l0 -70 45 0 c25 0 45 5 45 10 0 6 -16 10 -35 10 -28 0
-35 4 -35 20 0 16 7 20 30 20 17 0 30 5 30 10 0 6 -13 10 -30 10 -23 0 -30 4
-30 20 0 16 7 20 35 20 19 0 35 5 35 10 0 6 -20 10 -45 10 l-45 0 0 -70z"/>
<path d="M7860 4006 c0 -8 -6 -17 -12 -20 -10 -5 -10 -7 0 -12 6 -3 12 -23 12
-45 0 -38 21 -62 38 -44 4 4 1 10 -5 12 -16 6 -17 65 -1 81 9 9 9 12 0 12 -7
0 -12 7 -12 15 0 8 -4 15 -10 15 -5 0 -10 -6 -10 -14z"/>
<path d="M8290 4006 c0 -8 -6 -17 -12 -20 -10 -5 -10 -7 0 -12 6 -3 12 -23 12
-45 0 -38 21 -62 38 -44 4 4 1 10 -5 12 -7 3 -13 20 -13 38 0 18 6 36 13 39
10 5 10 7 0 12 -7 3 -13 12 -13 20 0 8 -4 14 -10 14 -5 0 -10 -6 -10 -14z"/>
<path d="M7800 3935 c0 -30 5 -55 10 -55 6 0 10 25 10 55 0 30 -4 55 -10 55
-5 0 -10 -25 -10 -55z"/>
<path d="M7973 3964 c-15 -24 -15 -29 -2 -53 8 -14 24 -27 35 -29 22 -3 52 24
39 36 -4 4 -10 1 -12 -5 -3 -7 -13 -13 -23 -13 -21 0 -34 29 -24 54 7 19 40
22 47 4 2 -7 8 -10 12 -6 11 11 -14 38 -36 38 -10 0 -26 -12 -36 -26z"/>
<path d="M8072 3938 l3 -53 38 -2 37 -1 0 54 c0 30 -4 54 -10 54 -5 0 -10 -20
-10 -45 0 -38 -3 -45 -20 -45 -17 0 -20 7 -20 45 0 25 -5 45 -11 45 -6 0 -9
-21 -7 -52z"/>
<path d="M8192 3978 c-20 -20 -14 -35 18 -47 42 -14 40 -35 -2 -27 -30 6 -32
5 -16 -10 22 -23 68 -11 68 17 0 13 -10 24 -30 30 -40 14 -39 33 1 25 27 -5
30 -4 19 9 -15 18 -42 19 -58 3z"/>
<path d="M8362 3978 c-7 -7 -12 -26 -12 -43 0 -17 5 -36 12 -43 28 -28 78 -1
78 43 0 44 -50 71 -78 43z m53 -43 c0 -23 -5 -31 -22 -33 -19 -3 -23 1 -23 26
0 33 8 44 30 40 9 -2 15 -14 15 -33z"/>
<path d="M8460 3933 c0 -63 18 -72 22 -10 2 34 7 42 23 42 16 0 21 -8 23 -42
4 -58 22 -55 22 3 0 38 3 45 18 42 12 -2 18 -15 20 -46 2 -23 7 -42 13 -42 14
0 11 88 -3 97 -7 4 -41 8 -75 9 l-63 0 0 -53z"/>
<path d="M8646 3968 c-21 -29 -20 -41 2 -68 14 -18 25 -22 45 -16 35 8 35 22
0 21 -14 0 -28 6 -30 13 -3 8 6 12 26 12 23 0 31 5 31 18 0 43 -49 56 -74 20z
m54 -8 c0 -5 -9 -10 -20 -10 -11 0 -20 5 -20 10 0 6 9 10 20 10 11 0 20 -4 20
-10z"/>
<path d="M8740 3933 c0 -40 4 -53 15 -53 11 0 15 12 15 45 0 33 4 45 15 45 8
0 15 4 15 8 0 5 -13 9 -30 9 -30 0 -30 -1 -30 -54z"/>
<path d="M7572 3488 c1 -36 2 -43 5 -20 5 40 17 41 40 2 25 -42 33 -37 33 20
0 55 -17 69 -22 18 l-3 -33 -20 33 c-10 17 -23 32 -27 32 -4 0 -7 -24 -6 -52z"/>
<path d="M7675 3509 c-5 -8 -1 -9 14 -4 11 3 21 2 21 -3 0 -5 -9 -12 -21 -15
-24 -6 -23 -38 1 -45 12 -4 13 -2 3 9 -17 18 -16 29 2 29 8 0 15 -9 15 -20 0
-11 4 -20 8 -20 5 0 6 17 3 37 -6 38 -32 56 -46 32z"/>
<path d="M7753 3480 c0 -25 2 -35 4 -22 2 12 2 32 0 45 -2 12 -4 2 -4 -23z"/>
<path d="M7780 3506 c5 -5 11 -24 11 -40 l2 -31 6 34 c8 48 31 53 31 7 0 -20
5 -36 10 -36 12 0 13 50 2 66 -4 6 -22 11 -40 11 -22 0 -29 -4 -22 -11z"/>
<path d="M7877 3513 c-4 -3 -7 -19 -7 -35 0 -31 24 -48 42 -30 7 7 5 10 -7 9
-10 -1 -20 4 -22 11 -3 7 5 12 21 12 28 0 33 9 14 28 -13 13 -31 16 -41 5z
m33 -13 c0 -5 -7 -10 -16 -10 -8 0 -12 5 -9 10 3 6 10 10 16 10 5 0 9 -4 9
-10z"/>
<path d="M8053 3125 c0 -33 2 -45 4 -27 2 18 2 45 0 60 -2 15 -4 0 -4 -33z"/>
<path d="M7704 3138 c-4 -7 2 -18 14 -26 28 -19 28 -36 1 -29 -16 4 -19 3 -11
-5 14 -14 42 -3 42 16 0 8 -9 18 -20 21 -26 8 -26 29 0 22 11 -3 18 -1 14 4
-8 13 -31 11 -40 -3z"/>
<path d="M7786 3141 c-3 -5 3 -7 14 -4 27 7 25 -10 -2 -22 -33 -14 -29 -40 5
-41 26 -1 28 1 25 35 -3 35 -28 55 -42 32z m34 -40 c0 -14 -18 -23 -30 -16 -6
4 -8 11 -5 16 8 12 35 12 35 0z"/>
<path d="M7853 3110 c0 -25 2 -35 4 -22 2 12 2 32 0 45 -2 12 -4 2 -4 -23z"/>
<path d="M7883 3137 c9 -7 18 -25 20 -42 4 -27 4 -26 6 8 1 49 28 51 34 2 l4
-35 -1 37 c-1 37 -2 38 -40 40 -32 2 -36 0 -23 -10z"/>
<path d="M7971 3091 c1 -32 4 -48 7 -36 4 11 16 20 27 20 16 0 20 7 20 35 0
31 -3 35 -27 36 -27 1 -28 0 -27 -55z m44 19 c0 -13 -6 -25 -12 -27 -16 -6
-27 21 -19 43 9 23 31 11 31 -16z"/>
<path d="M8091 3136 c-16 -19 -11 -46 11 -60 12 -7 21 -7 28 0 8 8 4 10 -11
10 -12 -1 -24 5 -26 12 -3 7 5 12 22 12 20 0 26 4 23 17 -4 23 -31 28 -47 9z
m39 -6 c0 -5 -9 -10 -21 -10 -11 0 -17 5 -14 10 3 6 13 10 21 10 8 0 14 -4 14
-10z"/>
<path d="M8227 3143 c6 -4 13 -24 16 -43 4 -34 4 -33 3 4 -1 26 -6 41 -16 43
-10 3 -11 2 -3 -4z"/>
<path d="M8275 3140 c-3 -5 0 -7 9 -4 8 3 21 2 28 -2 9 -6 5 -10 -12 -14 -36
-9 -34 -45 3 -46 23 -1 27 3 27 25 0 40 -38 68 -55 41z m43 -42 c-7 -19 -38
-22 -38 -4 0 10 9 16 21 16 12 0 19 -5 17 -12z"/>
<path d="M8353 3110 c0 -25 2 -35 4 -22 2 12 2 32 0 45 -2 12 -4 2 -4 -23z"/>
<path d="M8378 3143 c6 -3 13 -21 13 -41 l2 -37 6 35 c4 22 12 35 21 35 9 0
17 -13 21 -35 6 -34 6 -34 8 -5 1 42 -9 52 -49 52 -19 0 -29 -2 -22 -4z"/>
<path d="M8474 3136 c-11 -27 1 -61 21 -64 18 -2 18 -2 3 8 -26 16 -22 30 7
30 27 0 32 9 13 28 -16 16 -37 15 -44 -2z m41 -6 c3 -5 -3 -10 -14 -10 -12 0
-21 5 -21 10 0 6 6 10 14 10 8 0 18 -4 21 -10z"/>
<path d="M7570 2590 c0 -46 2 -50 23 -50 30 0 47 18 47 50 0 32 -17 50 -47 50
-21 0 -23 -4 -23 -50z m54 17 c8 -12 8 -22 0 -34 -16 -25 -38 -22 -42 5 -7 50
18 67 42 29z"/>
<path d="M8048 2627 c-8 -23 7 -80 22 -85 12 -4 13 -2 3 9 -15 15 -17 56 -4
61 5 2 3 8 -4 15 -10 9 -14 9 -17 0z"/>
<path d="M7671 2606 c-26 -31 13 -86 41 -58 11 11 10 12 -3 7 -9 -3 -22 1 -29
10 -11 13 -9 15 15 15 20 0 26 4 23 17 -4 23 -31 28 -47 9z m34 -6 c3 -5 -1
-10 -9 -10 -9 0 -16 5 -16 10 0 6 4 10 9 10 6 0 13 -4 16 -10z"/>
<path d="M7747 2613 c-13 -13 -7 -32 13 -38 27 -9 26 -29 -1 -22 -16 4 -19 3
-11 -5 14 -14 42 -3 42 16 0 8 -9 18 -20 21 -26 8 -26 29 0 22 11 -3 18 -1 14
4 -6 11 -28 12 -37 2z"/>
<path d="M7823 2613 c-19 -7 -16 -60 4 -67 9 -4 21 -2 26 3 6 6 2 9 -9 8 -21
-2 -31 30 -15 46 7 7 16 6 28 -4 16 -13 17 -12 4 4 -14 18 -18 19 -38 10z"/>
<path d="M7880 2579 c0 -21 5 -39 10 -39 6 0 10 13 10 28 0 15 4 32 10 38 6 6
3 10 -10 11 -17 2 -20 -4 -20 -38z"/>
<path d="M7943 2580 c0 -25 2 -35 4 -22 2 12 2 32 0 45 -2 12 -4 2 -4 -23z"/>
<path d="M7971 2561 c1 -32 4 -48 7 -36 4 11 13 20 21 20 8 0 19 8 25 18 14
22 -3 52 -33 53 -19 1 -21 -4 -20 -55z m44 19 c0 -27 -22 -39 -31 -16 -8 22 3
49 19 43 6 -2 12 -14 12 -27z"/>
<path d="M8103 2580 c0 -25 2 -35 4 -22 2 12 2 32 0 45 -2 12 -4 2 -4 -23z"/>
<path d="M8134 2606 c-11 -28 0 -61 20 -61 27 0 44 30 30 53 -15 22 -43 27
-50 8z m41 -26 c0 -27 -22 -39 -31 -16 -8 22 3 49 19 43 6 -2 12 -14 12 -27z"/>
<path d="M8211 2575 l2 -40 6 34 c8 48 31 53 31 7 0 -20 5 -36 10 -36 12 0 13
49 2 67 -4 7 -18 11 -30 10 -19 -1 -22 -7 -21 -42z"/>
<path d="M8133 2225 c0 -33 2 -45 4 -27 2 18 2 45 0 60 -2 15 -4 0 -4 -33z"/>
<path d="M8549 2259 c-2 -29 3 -74 9 -81 4 -4 6 13 5 38 -1 43 -12 74 -14 43z"/>
<path d="M7704 2238 c-4 -7 2 -18 14 -26 28 -19 28 -36 1 -29 -16 4 -19 3 -11
-5 14 -14 42 -3 42 16 0 8 -9 18 -20 21 -26 8 -26 29 0 22 11 -3 18 -1 14 4
-8 13 -31 11 -40 -3z"/>
<path d="M7782 2238 c-23 -23 -7 -68 25 -68 21 0 35 37 23 60 -12 23 -30 26
-48 8z m42 -13 c8 -21 -3 -45 -20 -45 -8 0 -17 7 -20 15 -8 21 2 45 20 45 7 0
16 -7 20 -15z"/>
<path d="M7865 2240 c-3 -4 4 -6 15 -3 17 5 20 0 21 -33 l2 -39 6 35 c4 22 12
35 21 35 9 0 17 -13 21 -35 6 -34 6 -34 8 -5 0 17 -3 35 -7 41 -8 12 -80 16
-87 4z"/>
<path d="M7986 2241 c-3 -5 3 -7 14 -4 11 3 20 0 20 -6 0 -6 -11 -11 -25 -11
-28 0 -29 -3 -15 -31 11 -20 35 -25 44 -10 4 5 -2 7 -13 4 -11 -3 -21 2 -24
11 -5 12 0 16 19 16 19 0 25 5 22 17 -4 20 -33 29 -42 14z"/>
<path d="M8092 2238 c-22 -22 -7 -69 23 -68 5 0 2 5 -7 11 -10 5 -18 19 -18
29 0 10 8 24 18 29 9 6 12 11 7 11 -6 0 -16 -5 -23 -12z"/>
<path d="M8171 2236 c-16 -19 -11 -46 11 -60 12 -7 21 -7 28 0 8 8 4 10 -11
10 -12 -1 -24 5 -26 12 -3 7 5 12 22 12 20 0 26 4 23 17 -4 23 -31 28 -47 9z
m39 -6 c0 -5 -9 -10 -21 -10 -11 0 -17 5 -14 10 3 6 13 10 21 10 8 0 14 -4 14
-10z"/>
<path d="M8244 2239 c-3 -6 -1 -16 5 -22 9 -9 10 -7 5 7 -6 16 -4 18 14 14 12
-4 20 -2 16 3 -7 12 -31 11 -40 -2z"/>
<path d="M8323 2243 c-19 -7 -16 -60 4 -67 9 -4 21 -2 26 3 6 6 2 9 -9 8 -14
-2 -19 5 -19 23 0 18 5 25 17 24 10 -1 15 2 12 7 -6 10 -12 10 -31 2z"/>
<path d="M8395 2240 c-3 -6 1 -7 9 -4 18 7 21 14 7 14 -6 0 -13 -4 -16 -10z"/>
<path d="M8433 2210 c0 -25 2 -35 4 -22 2 12 2 32 0 45 -2 12 -4 2 -4 -23z"/>
<path d="M8475 2241 c-4 -7 0 -8 10 -4 10 3 21 0 27 -8 8 -12 9 -11 5 1 -5 18
-33 25 -42 11z"/>
<path d="M8593 2210 c0 -25 2 -35 4 -22 2 12 2 32 0 45 -2 12 -4 2 -4 -23z"/>
<path d="M8632 2238 c-23 -23 -7 -68 25 -68 21 0 35 37 23 60 -12 23 -30 26
-48 8z m42 -13 c8 -21 -3 -45 -20 -45 -8 0 -17 7 -20 15 -8 21 2 45 20 45 7 0
16 -7 20 -15z"/>
<path d="M8737 2243 c6 -4 13 -24 16 -43 4 -34 4 -33 3 4 -1 26 -6 41 -16 43
-10 3 -11 2 -3 -4z"/>
<path d="M8277 2193 c5 -13 2 -15 -17 -10 -16 4 -20 3 -12 -5 14 -14 42 -3 42
17 0 8 -4 15 -10 15 -5 0 -7 -7 -3 -17z"/>
<path d="M8510 2191 c0 -8 -8 -11 -20 -8 -11 3 -18 1 -14 -4 3 -5 11 -9 19 -9
16 0 30 18 21 27 -3 4 -6 1 -6 -6z"/>
<path d="M7583 1733 c-21 -8 -15 -33 12 -45 26 -12 34 -38 12 -38 -7 0 -18 5
-25 12 -9 9 -12 9 -12 1 0 -21 41 -26 59 -8 15 16 15 18 -2 28 -52 33 -53 35
-33 43 12 5 21 3 24 -4 2 -7 8 -12 14 -12 6 0 6 6 -2 15 -13 15 -25 17 -47 8z"/>
<path d="M7660 1701 c-18 -35 24 -85 44 -52 3 5 -2 8 -11 7 -9 0 -18 5 -20 12
-3 7 4 12 17 12 15 0 20 5 18 17 -5 26 -35 28 -48 4z m40 -1 c0 -5 -7 -10 -15
-10 -8 0 -15 5 -15 10 0 6 7 10 15 10 8 0 15 -4 15 -10z"/>
<path d="M7730 1714 c0 -5 5 -15 12 -22 9 -9 9 -15 0 -24 -7 -7 -12 -17 -12
-22 0 -6 7 -3 14 7 13 16 15 17 23 3 6 -11 8 -3 8 24 0 27 -3 36 -11 30 -6 -6
-15 -5 -22 2 -7 7 -12 8 -12 2z"/>
<path d="M7712 1358 c-17 -17 -15 -63 3 -78 30 -25 57 26 39 74 -7 19 -25 21
-42 4z m33 -39 c0 -24 -5 -34 -15 -34 -16 0 -25 37 -16 62 10 26 31 8 31 -28z"/>
<path d="M12368 1310 l22 -24 23 24 22 24 -22 -18 c-22 -19 -24 -19 -45 0
l-23 18 23 -24z"/>
<path d="M7683 843 c59 -2 155 -2 215 0 59 1 10 3 -108 3 -118 0 -167 -2 -107
-3z"/>
<path d="M7563 750 c0 -47 2 -66 4 -42 2 23 2 61 0 85 -2 23 -4 4 -4 -43z"/>
<path d="M8013 750 c0 -47 2 -66 4 -42 2 23 2 61 0 85 -2 23 -4 4 -4 -43z"/>
<path d="M7657 803 c-15 -14 -5 -33 24 -49 23 -12 28 -19 20 -27 -9 -9 -16 -8
-31 1 -11 7 -20 8 -20 3 0 -19 42 -23 59 -6 15 15 15 17 -3 31 -11 8 -26 14
-33 14 -7 0 -13 5 -13 10 0 18 29 23 48 9 15 -13 16 -12 3 4 -14 17 -42 23
-54 10z"/>
<path d="M7746 781 c-3 -5 3 -7 14 -4 27 7 25 -10 -2 -22 -33 -14 -29 -40 5
-41 26 -1 28 1 25 35 -3 35 -28 55 -42 32z m34 -40 c0 -14 -18 -23 -30 -16 -6
4 -8 11 -5 16 8 12 35 12 35 0z"/>
<path d="M7812 758 c12 -36 28 -59 28 -41 0 6 3 20 6 30 5 15 4 15 -4 3 -9
-12 -13 -9 -21 13 -15 38 -22 34 -9 -5z"/>
<path d="M7886 781 c-3 -5 3 -7 14 -4 11 3 20 0 20 -6 0 -6 -12 -11 -26 -11
-18 0 -25 -5 -22 -16 5 -25 35 -41 49 -27 9 9 7 11 -8 7 -13 -4 -22 0 -26 10
-5 12 0 16 19 16 19 0 25 5 22 17 -4 20 -33 29 -42 14z"/>
<path d="M7683 653 c59 -2 155 -2 215 0 59 1 10 3 -108 3 -118 0 -167 -2 -107
-3z"/>
</g>
</svg>
